<svg xmlns="http://www.w3.org/2000/svg" viewBox="0 0 272.58 226.1"><defs><style>.cls-1{isolation:isolate}.cls-2,.cls-4{fill:#8a5d00}.cls-17,.cls-2,.cls-3{opacity:.2}.cls-17,.cls-2,.cls-4{mix-blend-mode:multiply}.cls-4{opacity:.3}.cls-14,.cls-5{fill:#ba7749}.cls-10,.cls-6{fill:#a05f32}.cls-7{fill:#895029}.cls-8{fill:#3a2110}.cls-9{fill:#fff}.cls-10,.cls-11{opacity:.5}.cls-12{fill:#c48051}.cls-13{fill:#8e5128}.cls-14{opacity:.1;mix-blend-mode:overlay}.cls-15{fill:#af7248;opacity:.46}.cls-16{fill:#43629b}.cls-17,.cls-18{fill:#315182}</style></defs><title>Asset 4</title><g class="cls-1"><g id="Layer_2" data-name="Layer 2"><g id="Objects"><ellipse class="cls-2" cx="88.47" cy="215.21" rx="78.28" ry="10.89"/><g class="cls-3"><ellipse class="cls-4" cx="143.27" cy="216.29" rx="16.52" ry="3.16"/><ellipse class="cls-4" cx="134.14" cy="210.66" rx="16.52" ry="3.16"/><ellipse class="cls-4" cx="28.33" cy="216.29" rx="16.52" ry="3.16"/><ellipse class="cls-4" cx="53.58" cy="208.72" rx="16.52" ry="3.16"/></g><path class="cls-5" d="M272.5 34.3v-.09c0-.03 0 0 0 0s-.01.05 0 .09zM272.51 34.65c.08 1.1.32 2-1 2.63a21.56 21.56 0 0 1-2.35.78c-.88.31-1.6.89-2.45 1.24-1.72.71-3-.56-4.51-1a2.29 2.29 0 0 0-.36-.07 2.42 2.42 0 0 0-.66 0c-2 .1-4.25 1.29-6 2.2-2 1-4.31 1-6.45 1.21-2.38.28-4.76.65-7.14 1-.38 0-.74.1-1.07.17a3.64 3.64 0 0 0-3 2.27c-.47 1-.92 2.09-1.37 3.15s-.82 1.92-1.24 2.88c-1.87 4.23-3.56 8.58-5.65 12.71-2 3.85-2.76 8.23-5.09 11.89a32.26 32.26 0 0 1-3.91 4.67c-1.59 1.68-3.08 3.45-4.83 5a45.19 45.19 0 0 1-22 10.21 56.61 56.61 0 0 1-27-2.45c-1.08-.36-2.16-.74-3.21-1.17a14.55 14.55 0 0 0-3-1.19c-1.78-.31-2.89 1-3.8 2.37a18.64 18.64 0 0 1-3.66 4.16c-1.44 1.14-3.27 1.8-4.57 3.11s-1.82 3.65-2.2 5.56c-.44 2.23-.91 4.45-1.39 6.67-1 4.6-2.37 9.12-3.23 13.75a50 50 0 0 0-.84 7c-.1 2.35 0 4.68-.23 7-.38 4.73.41 9.38.26 14.1a18 18 0 0 1-1.44 6.46 26.24 26.24 0 0 0-1.92 6.42 67.11 67.11 0 0 0-.14 14.17 67.63 67.63 0 0 0 2.09 13.72 12.68 12.68 0 0 0 1.32 3 11.73 11.73 0 0 1 1.4 2.7c.59 1.92.43 3.9 1.35 5.74a9.3 9.3 0 0 0 3.77 4c1.51.82 3.24.73 4.75 1.46a3.73 3.73 0 0 1 1.69 1.64c.25.47.85 1.49.66 2s-1.27.58-1.8.7c-1 .24-2 .51-3 .69a33.82 33.82 0 0 1-7 .23 41.7 41.7 0 0 1-6-.54c-1.36-.24-4.17-.78-4.07-2.63 0-.8.89-1.65.44-2.44-.3-.53-1-.63-1.56-.68-1.69-.16-3.38-.05-5.08-.31-1.35-.2-3.83-.7-4.18-2.32-.31-1.37 1-2.74 1.71-3.79a3.66 3.66 0 0 0-.18-4.62 4.11 4.11 0 0 1-1.19-2.7 20 20 0 0 1 .32-3.09c.3-2.3.6-4.6.78-6.92.37-4.83.57-9.7.59-14.54s-.3-9.66-.69-14.48c-.37-4.65-.81-9.35.18-14s2.48-8.77 3-13.34c.57-4.75.66-9.53 1.23-14.28.29-2.4.62-4.8.84-7.21a24.59 24.59 0 0 0 .18-4.85c-.17-1.51-.72-2.59-2.39-2.28a44 44 0 0 1-6.28.67c-4.88.23-9.76.17-14.65.13s-9.53 0-14.28-.19c-8.69-.38-17.47-2.1-25.31-5.95a64.61 64.61 0 0 1-11.28-7.2c-1.78-1.39-3.5-2.86-5.18-4.38s-3.1-3-5.39-3.18c0 2.24.16 4.49 0 6.73-.13 2-.53 3.92-.06 5.87s1 4 .39 6.16c-.31 1-.85 1.93-1.25 2.91s-.64 2-1 2.94a40.54 40.54 0 0 1-2.69 5.5 62 62 0 0 0-3 5.55 12.91 12.91 0 0 0-.8 5.78q.13 3.34.23 6.7a38.35 38.35 0 0 1-.09 6.43c-.29 2-1.11 3.88-1.31 5.89a28.42 28.42 0 0 0 .37 6.51c.27 2.08.49 4.18.92 6.24s1.08 4 1.45 6.08.12 3.91.64 5.81c.58 2.1 1.23 4.18 1.84 6.27 1.22 4.18 2.44 8.37 3.88 12.48.68 2 1.39 3.93 2.23 5.84a28.89 28.89 0 0 0 3.15 5.18 47.23 47.23 0 0 0 3.25 4.57 9.25 9.25 0 0 0 4.77 2.74c1.54.36 3.29.16 4.7 1 1.06.6 2.54 2.74 1.53 3.95-.53.63-1.77.48-2.5.52l-3.15.13-6.71.16c-1.19 0-3.1.42-4-.62-1.14-1.35.57-3.32-.37-4.86a12.13 12.13 0 0 0-2.14-2 6.59 6.59 0 0 1-1.35-2.13c-.84-1.94-1.48-4-2.21-5.95-1.49-4.08-3.16-8.1-4.79-12.12s-3.32-8.2-5.22-12.2a117.92 117.92 0 0 0-6.35-11.22 52 52 0 0 1-3.14-5.4 8.72 8.72 0 0 1-.38-5.83 84.59 84.59 0 0 0 1.37-13.1c.1-2.22.2-4.44.26-6.66 0-1.15 0-2.31.11-3.45a3.66 3.66 0 0 0 0-1.32 4.26 4.26 0 0 0-.65-1 13.9 13.9 0 0 0-2.22 6c-.47 2.29-.67 4.63-1.14 6.92a37.09 37.09 0 0 1-2.09 6.69 12.78 12.78 0 0 0-1.33 6.9c.33 2.33 0 4.62.06 7a57.78 57.78 0 0 1-.07 7.56 69.57 69.57 0 0 0-.5 7.77 60.55 60.55 0 0 0 .76 7.61c.72 5.09.94 10.23 1.79 15.29a27.84 27.84 0 0 0 2.1 6.79c.51 1.13 1.07 2.24 1.51 3.4.37 1 .63 2 1 2.89a8.29 8.29 0 0 0 4.39 4.23c1.89.77 4.2.89 5.84 2.22 1.42 1.17.51 2.54-.85 3.17-1.8.82-4 .71-5.88.67-2.46-.06-4.92-.17-7.37-.27a3.52 3.52 0 0 1-2.7-.83A2.44 2.44 0 0 1 15 214c.35-1.17.81-2.25.34-3.48a10.52 10.52 0 0 0-1.61-2.31c-1.44-1.89-1-4.61-1.15-6.86a113.86 113.86 0 0 0-2.12-14.91c-.91-5-1.9-9.91-3.07-14.82a101.18 101.18 0 0 0-4.12-14.2 17.73 17.73 0 0 0-1.58-3.1 9 9 0 0 1-1.61-2.67c-.52-2.12 1-4.1 1.71-6A69 69 0 0 0 4 138.53l2-7.42a54 54 0 0 0 1.88-14.74c-.1-5.17-.54-10.33-.83-15.5s-.51-10.38-.89-15.56-.93-10.11-1-15.18A80.1 80.1 0 0 1 6 54.81 12.17 12.17 0 0 1 8.6 49a28.22 28.22 0 0 0 3.94-5.1c1-1.91 1.78-4 3.31-5.52 1.23-1.26 2.54-2.3 2.63-4.2.07-1.54-.65-3.63.44-5a6.38 6.38 0 0 1 2.37-1.33c1.12-.54 2.19-1.17 3.3-1.72a34.63 34.63 0 0 1 6.61-2.48c2.27-.58 4.64-.78 6.89-1.49a25.76 25.76 0 0 0 3.25-1.49 8.19 8.19 0 0 1 3.19-.64c1.06-.08 1.65-.91 2.45-1.5a28.82 28.82 0 0 1 3-1.68c1.83-1 3.16-2.65 4.69-4.06a41.34 41.34 0 0 1 5.85-4.33 54.06 54.06 0 0 1 12.74-6c9.36-2.94 19.44-2.86 29-.92 4.41.9 8.81 2.32 12.31 5.25s5.12 6.83 7.25 10.56 4.77 6.48 8.87 7.84c4.36 1.45 9 1.71 13.07 4 3.94 2.17 6.92 5.39 9.83 8.74 3.34 3.83 6.58 7.74 9.94 11.55a47.36 47.36 0 0 0 10.92 9A30.2 30.2 0 0 0 187 63.06 19.59 19.59 0 0 0 199.83 60a30.17 30.17 0 0 0 8.59-9.56c5-8.08 7.84-17.26 10.15-26.43-1.33.09-2.46-1.07-3.3-2a12.6 12.6 0 0 1-2.52-3.69 11.93 11.93 0 0 1-.27-8.64 31.19 31.19 0 0 0 4.48 3 34.4 34.4 0 0 1 4.2 2.12c.27-.82-.54-2 .71-2.27a15.84 15.84 0 0 0 1.63-.27 4.44 4.44 0 0 1 1.8-.31c1.25.12 2.21 1.07 3.42 1.34a3.51 3.51 0 0 0 1.82 0c.35-.11.38-.23.71-.47a7.23 7.23 0 0 1 7.14-.44 8.59 8.59 0 0 1 3.07 2.3 11.22 11.22 0 0 1 1.3 2.46 17.73 17.73 0 0 0 8.06 4c1.62.31 3.29.29 4.91.6a27.57 27.57 0 0 1 4.37 1.6c1.53.57 3.22.58 4.71 1.27a11.46 11.46 0 0 1 3.55 2.87c1.81 2.07 3.64 4.45 4.15 7.17zM272.53 34.74v-.09a.47.47 0 0 1 0-.17z"/><path class="cls-6" d="M231 18.59a5.34 5.34 0 0 1 4.4-1.67c3.14 0 1.89 1.67 1.89 1.67a4 4 0 0 1-3.46 2.11 2.63 2.63 0 0 1-2.83-2.11z"/><path class="cls-7" d="M231.89 18.65a3.86 3.86 0 0 1 3.18-1.21c2.27 0 1.36 1.21 1.36 1.21a2.86 2.86 0 0 1-2.5 1.53 1.9 1.9 0 0 1-2.04-1.53z"/><path class="cls-8" d="M235.67 18.76a1.46 1.46 0 0 1-.6 1.17 2.65 2.65 0 0 1-.94.25 1.41 1.41 0 0 1-1.29-1.42 1.44 1.44 0 0 1 .44-1 4.85 4.85 0 0 1 1.52-.28 1.46 1.46 0 0 1 .87 1.28z"/><circle class="cls-9" cx="234.22" cy="18.12" r=".34"/><circle class="cls-9" cx="234.67" cy="18.91" r=".18"/><path class="cls-10" d="M229.06 19.59s-.78 4 3.72 4h4.58s-7.87-.44-8.3-4z"/><path class="cls-11 cls-6" d="M229.62 18.83a8 8 0 0 1 1.5-1.59 8.3 8.3 0 0 1 1.93-1.24 6.36 6.36 0 0 1 1.26-.41 5.72 5.72 0 0 1 1.4-.1l.71.13.63.2a6.41 6.41 0 0 1 1.21.6 5.43 5.43 0 0 1 1 .79 5 5 0 0 1 .67.88 4.72 4.72 0 0 1 .6 1.5 2.88 2.88 0 0 1 .07.6 6 6 0 0 0-1.13-1.76 7 7 0 0 0-.71-.67 7.16 7.16 0 0 0-.9-.58 8.34 8.34 0 0 0-1-.44l-.59-.17-.56-.08a7.93 7.93 0 0 0-4.19 1.2c-1.18.64-1.9 1.14-1.9 1.14z"/><path class="cls-12" d="M245.05 19.77a27.33 27.33 0 0 0 4.77 3c3.62 1.93 7.88.58 11.44 2.76 1.4.87 3.34.84 5 1.33a8.92 8.92 0 0 1 3.34 2.19c-1.73-2.34-3.89-4.34-5.67-4.86s-3.6-.46-5-1.33c-3.56-2.18-7.82-.83-11.44-2.76-1-.56-2-1.1-3-1.71a7.55 7.55 0 0 1 .64 1.4z"/><path class="cls-10" d="M213.78 13s-.46 5.51 3.9 8.6c0 0 2-.5 2.73-4.27 0 0-4.36-1.65-6.63-4.33z"/><g class="cls-11"><path class="cls-13" d="M237.7 44.8zM237.69 44.81zM240.52 42.74a3.64 3.64 0 0 0-3 2.27c-.47 1-.92 2.09-1.37 3.15a10.91 10.91 0 0 1-3.15-2.71c-.23-.27-.44-.55-.64-.82a22 22 0 0 1-2.62-4.91c1.09 1.31 3.1 2.06 5.21 2.48a30.44 30.44 0 0 0 5.57.54zM260.66 27.62s4.38.42 5.92 3.58a3.06 3.06 0 0 1-3 2s.58-3.12-2.92-5.58zM262.43 38.44s-.32-.09-.87-.31a21 21 0 0 1-2.23-1 12.3 12.3 0 0 1-1.41-.86 8.41 8.41 0 0 1-.73-.57 3 3 0 0 0-.69-.48 7.37 7.37 0 0 0-1.69-.54 19.22 19.22 0 0 0-1.91-.32c-1.3-.17-2.62-.27-3.86-.34a24 24 0 0 1-3.44-.31 10.65 10.65 0 0 1-2.37-.67 3.36 3.36 0 0 1-.6-.33l-.2-.14a4.64 4.64 0 0 0 .87.29 13.13 13.13 0 0 0 2.37.28H249.07a32.06 32.06 0 0 1 4 .23 20.17 20.17 0 0 1 2 .38 6.92 6.92 0 0 1 1.94.74 2 2 0 0 1 .41.29l.18.15.18.18a7.64 7.64 0 0 0 .62.57c.43.36.85.68 1.26 1 .81.57 1.51 1 2 1.32z"/></g><path class="cls-10" d="M19.3 125.25c0-1.15 0-2.31.11-3.45a3.66 3.66 0 0 0 0-1.32 4.27 4.27 0 0 0-.65-1 13.9 13.9 0 0 0-2.22 6c-.47 2.29-.67 4.63-1.14 6.92a37.09 37.09 0 0 1-2.25 6.77 12.78 12.78 0 0 0-1.28 6.83c.33 2.33 0 4.62.06 7a57.78 57.78 0 0 1-.07 7.56 69.57 69.57 0 0 0-.5 7.77 60.55 60.55 0 0 0 .76 7.61c.72 5.09.94 10.23 1.79 15.29A27.84 27.84 0 0 0 16 198c.51 1.13 1.07 2.24 1.51 3.4.37 1 .63 2 1 2.89a8.29 8.29 0 0 0 3.55 3.82c-.1-.18-.2-.37-.29-.56-.42-.94-.68-1.93-1-2.89-.44-1.16-1-2.27-1.51-3.4a27.84 27.84 0 0 1-2.1-6.79c-.85-5.06-1.07-10.2-1.79-15.29a60.55 60.55 0 0 1-.76-7.61 69.57 69.57 0 0 1 .5-7.77 57.78 57.78 0 0 0 .07-7.56c-.08-2.34.27-4.63-.06-7a12.78 12.78 0 0 1 1.28-6.87 37.09 37.09 0 0 0 2.25-6.77c.1-.47.17-.94.25-1.41q.07-1.16.12-2.33c.12-2.17.22-4.39.28-6.61zM272.51 34.65c-.55-2.72-2.34-5.1-4.15-7.13a14.64 14.64 0 0 0-2.27-2.1 14.18 14.18 0 0 1 3.16 6 .47.47 0 0 1 0-.17v.17c.08 1.1.32 2-1 2.63a21.56 21.56 0 0 1-2.35.78c-.88.31-1.6.89-2.45 1.24-1.72.71-3-.56-4.51-1a2.29 2.29 0 0 0-.36-.07 2.42 2.42 0 0 0-.66 0c-2 .1-4.25 1.29-6 2.2-2 1-4.31 1-6.45 1.21-2.38.28-4.76.65-7.14 1-.38.05-.74.1-1.07.17a3.64 3.64 0 0 0-3 2.27c-.47 1-.92 2.09-1.37 3.15s-.82 1.92-1.24 2.88c-1.87 4.23-3.56 8.58-5.65 12.71-2 3.85-2.76 8.23-5.09 11.89a32.27 32.27 0 0 1-3.91 4.57c-1.59 1.68-3.08 3.45-4.83 5a45.19 45.19 0 0 1-22 10.21 56.61 56.61 0 0 1-27-2.45c-1.07-.39-2.17-.81-3.17-1.2a14.55 14.55 0 0 0-3-1.19c-1.78-.31-2.89 1-3.8 2.37a18.64 18.64 0 0 1-3.65 4.21c-1.44 1.14-3.27 1.8-4.57 3.11s-1.82 3.65-2.2 5.56c-.44 2.23-.91 4.45-1.39 6.67-1 4.6-2.37 9.12-3.23 13.75a50 50 0 0 0-.84 7c-.1 2.35 0 4.68-.23 7-.38 4.73.41 9.38.26 14.1a18 18 0 0 1-1.44 6.46 26.24 26.24 0 0 0-1.92 6.42 67.12 67.12 0 0 0-.14 14.17 67.63 67.63 0 0 0 2.09 13.76 12.69 12.69 0 0 0 1.32 3 11.73 11.73 0 0 1 1.4 2.7c.59 1.92.43 3.9 1.35 5.74a9.31 9.31 0 0 0 3.62 3.86c-.12-.2-.25-.39-.36-.6-.92-1.84-.76-3.82-1.35-5.74a11.73 11.73 0 0 0-1.4-2.7 12.68 12.68 0 0 1-1.32-3 67.63 67.63 0 0 1-2.09-13.72 67.11 67.11 0 0 1 .14-14.17 26.24 26.24 0 0 1 1.92-6.42 18 18 0 0 0 1.44-6.46c.15-4.72-.64-9.37-.26-14.1.19-2.35.13-4.68.23-7a50 50 0 0 1 .84-7c.86-4.63 2.23-9.15 3.23-13.75.48-2.22.95-4.44 1.39-6.67.38-1.91.76-4.13 2.2-5.56s3.13-2 4.57-3.11a18.64 18.64 0 0 0 3.66-4.16c.91-1.33 2-2.68 3.8-2.37a14.55 14.55 0 0 1 3 1.19c1 .43 2.13.81 3.21 1.17a56.61 56.61 0 0 0 27 2.45 45.19 45.19 0 0 0 22-10.21c1.75-1.52 3.24-3.29 4.83-5a32.27 32.27 0 0 0 3.91-4.67c2.33-3.66 3.14-8 5.09-11.89 2.09-4.13 3.78-8.48 5.65-12.71.42-1 .83-1.92 1.24-2.88s.9-2.11 1.37-3.15a3.64 3.64 0 0 1 3-2.27c.33-.07.69-.12 1.07-.17 2.38-.31 4.76-.68 7.14-1 2.14-.25 4.5-.21 6.45-1.21 1.78-.91 4-2.1 6-2.2a2.42 2.42 0 0 1 .66 0 2.29 2.29 0 0 1 .36.07c1.51.41 2.79 1.68 4.51 1 .85-.35 1.57-.93 2.45-1.24a21.56 21.56 0 0 0 2.35-.78c1.27-.63 1.03-1.52.95-2.62zM269.22 31v.1c0 .04.01-.1 0-.1zM123.1 99.19a44 44 0 0 1-6.28.67c-4.88.23-9.76.17-14.65.13s-9.53 0-14.28-.19c-8.69-.38-17.47-2.1-25.31-5.95a64.6 64.6 0 0 1-11.28-7.2c-1.78-1.39-3.5-2.86-5.18-4.38s-3.1-3-5.39-3.18c0 2.24.16 4.49 0 6.73-.13 2-.53 3.92-.06 5.87s1 4 .39 6.16c-.31 1-.85 1.93-1.25 2.91s-.64 2-1 2.94a40.55 40.55 0 0 1-2.69 5.5 62 62 0 0 0-3 5.55 12.91 12.91 0 0 0-.8 5.78q.13 3.34.23 6.7a38.35 38.35 0 0 1-.09 6.43c-.29 2-1.11 3.88-1.31 5.89a28.42 28.42 0 0 0 .37 6.51c.27 2.08.49 4.18.92 6.24s1.08 4 1.45 6.08.12 3.91.64 5.81c.58 2.1 1.23 4.18 1.84 6.27 1.22 4.18 2.44 8.37 3.88 12.48.68 2 1.39 3.93 2.23 5.84a28.89 28.89 0 0 0 3.15 5.22 47.23 47.23 0 0 0 3.25 4.57 8.87 8.87 0 0 0 2 1.59c-.66-1-1.27-2-1.95-2.89a28.89 28.89 0 0 1-3.19-5.27c-.84-1.91-1.55-3.87-2.23-5.84-1.44-4.11-2.66-8.3-3.88-12.48-.61-2.09-1.26-4.17-1.84-6.27-.52-1.9-.29-3.88-.64-5.81s-1-4-1.45-6.08-.65-4.16-.92-6.24a28.42 28.42 0 0 1-.37-6.51c.2-2 1-3.89 1.31-5.89a38.35 38.35 0 0 0 .09-6.43q-.09-3.36-.23-6.7a12.91 12.91 0 0 1 .8-5.78 62 62 0 0 1 3-5.55 40.53 40.53 0 0 0 2.69-5.5c.36-1 .62-2 1-2.94s.94-1.89 1.25-2.91C45 99 44.45 97 43.95 95s-.07-4 .05-5.92c.14-2.24-.07-4.49 0-6.73 2.29.21 3.74 1.7 5.39 3.18s3.4 3 5.18 4.38a64.6 64.6 0 0 0 11.28 7.2c7.84 3.85 16.62 5.57 25.31 5.95 4.75.2 9.52.15 14.28.19s9.77.1 14.65-.13a47 47 0 0 0 5.47-.54c0-.38 0-.75-.06-1.12-.18-1.46-.73-2.58-2.4-2.27z"/><path class="cls-14" d="M30.31 212.7c-1.35-.53-2.86-.76-4.17-1.29a8.29 8.29 0 0 1-4.39-4.23c-.42-.94-.68-1.93-1-2.89-.44-1.16-1-2.27-1.51-3.4a27.84 27.84 0 0 1-2.1-6.79c-.9-5.1-1.14-10.21-1.84-15.3a60.55 60.55 0 0 1-.76-7.61 69.57 69.57 0 0 1 .5-7.77 57.78 57.78 0 0 0 .07-7.56c-.08-2.34.27-4.63-.06-7a12.78 12.78 0 0 1 1.28-6.86 37.09 37.09 0 0 0 2.25-6.77c.47-2.29.67-4.63 1.14-6.92a13.9 13.9 0 0 1 2.22-6 4.26 4.26 0 0 1 .65 1 3.66 3.66 0 0 1 0 1.32c-.08 1.14-.07 2.3-.11 3.45-.06 2.22-.16 4.44-.26 6.66a84.59 84.59 0 0 1-1.37 13.1 8.72 8.72 0 0 0 .38 5.83c.13.29.29.57.43.86.1-.37.19-.73.3-1.1l2-7.42a54 54 0 0 0 1.88-14.74c-.1-5.17-.54-10.33-.83-15.5s-.51-10.38-.89-15.56-.93-10.11-1-15.18A80.1 80.1 0 0 1 24 69.77a12.17 12.17 0 0 1 2.57-5.83 28.22 28.22 0 0 0 3.94-5.1c1-1.91 1.78-4 3.31-5.52 1.23-1.26 2.54-2.3 2.63-4.2.07-1.54-.65-3.63.44-5a6.38 6.38 0 0 1 2.37-1.33c1.12-.54 2.19-1.17 3.3-1.72a34.63 34.63 0 0 1 6.61-2.48c2.27-.58 4.64-.78 6.89-1.49a25.76 25.76 0 0 0 3.25-1.49 8.19 8.19 0 0 1 3.22-.61c1.06-.08 1.65-.91 2.45-1.5a28.82 28.82 0 0 1 3-1.68c1.83-1 3.16-2.65 4.69-4.06a41.34 41.34 0 0 1 5.85-4.33 54.06 54.06 0 0 1 12.74-6c9.36-2.94 19.44-2.86 29-.92l1.23.27c-2-3.56-3.73-7.3-6.92-10-3.5-2.93-7.9-4.35-12.31-5.25-9.54-1.94-19.62-2-29 .92a54.06 54.06 0 0 0-12.74 6 41.34 41.34 0 0 0-5.85 4.33c-1.53 1.41-2.86 3-4.69 4.06a28.82 28.82 0 0 0-3 1.68c-.8.59-1.39 1.42-2.45 1.5a8.19 8.19 0 0 0-3.19.64 25.76 25.76 0 0 1-3.25 1.49c-2.25.71-4.62.91-6.89 1.49a34.63 34.63 0 0 0-6.61 2.48c-1.11.55-2.18 1.18-3.3 1.72a6.38 6.38 0 0 0-2.37 1.33c-1.09 1.33-.37 3.42-.44 5-.09 1.9-1.4 2.94-2.63 4.2-1.53 1.57-2.32 3.61-3.31 5.52A28.22 28.22 0 0 1 8.6 49 12.17 12.17 0 0 0 6 54.81a80.1 80.1 0 0 0-.91 15.32c.08 5.07.65 10.12 1 15.18s.6 10.38.89 15.56.73 10.33.83 15.5A54 54 0 0 1 6 131.11q-1 3.72-2 7.42a69 69 0 0 1-2.14 7.19c-.75 1.86-2.23 3.84-1.71 6a9 9 0 0 0 1.61 2.67 17.73 17.73 0 0 1 1.58 3.1 101.18 101.18 0 0 1 4.12 14.2c1.17 4.91 2.16 9.86 3.07 14.82a113.86 113.86 0 0 1 2.12 14.91c.11 2.25-.29 5 1.15 6.86a10.52 10.52 0 0 1 1.61 2.31c.47 1.23 0 2.31-.34 3.48a2.44 2.44 0 0 0 .15 2.33 3.52 3.52 0 0 0 2.7.83c2.45.1 4.91.21 7.37.27a15.36 15.36 0 0 0 5.38-.48v-.65c-.12-1.25-.22-2.46-.36-3.67z"/><path class="cls-15" d="M8.25 50.24a6.38 6.38 0 0 1 2.37-1.33c1.12-.54 2.19-1.17 3.3-1.72a34.63 34.63 0 0 1 6.61-2.48c2.27-.58 4.64-.78 6.89-1.49a25.76 25.76 0 0 0 3.25-1.49 8.19 8.19 0 0 1 3.19-.64c1.06-.08 1.65-.91 2.45-1.5a28.82 28.82 0 0 1 3-1.68c1.83-1 3.16-2.65 4.69-4.06a41.34 41.34 0 0 1 5.85-4.33 54.06 54.06 0 0 1 12.74-6c9.36-2.94 19.44-2.86 29-.92 4.41.9 8.81 2.32 12.31 5.25s5.12 6.83 7.25 10.56 4.77 6.48 8.87 7.84c4.36 1.45 9 1.71 13.07 4 3.91 2.17 6.91 5.39 9.84 8.75 3.34 3.83 6.58 7.74 9.94 11.55a47.36 47.36 0 0 0 10.92 9 30.2 30.2 0 0 0 12.55 4.59A19.59 19.59 0 0 0 189.16 81a30.17 30.17 0 0 0 8.59-9.56A73.47 73.47 0 0 0 205 55.19a24.19 24.19 0 0 1-5.2 4.8 19.59 19.59 0 0 1-12.8 3.07 30.2 30.2 0 0 1-12.55-4.59 47.36 47.36 0 0 1-10.92-9c-3.36-3.81-6.6-7.72-9.94-11.55-2.91-3.35-5.89-6.57-9.83-8.74-4.09-2.26-8.71-2.52-13.07-4-4.1-1.36-6.76-4.16-8.87-7.84s-3.88-7.74-7.25-10.56-7.9-4.35-12.31-5.25c-9.54-1.94-19.62-2-29 .92a54.06 54.06 0 0 0-12.74 6 41.34 41.34 0 0 0-5.85 4.33c-1.53 1.41-2.86 3-4.69 4.06a28.82 28.82 0 0 0-3 1.68c-.8.59-1.39 1.42-2.45 1.5a8.19 8.19 0 0 0-3.19.64 25.76 25.76 0 0 1-3.25 1.49c-2.25.71-4.62.91-6.89 1.49a34.63 34.63 0 0 0-6.61 2.48c-1.11.55-2.18 1.18-3.3 1.72a6.38 6.38 0 0 0-2.37 1.33c-1.09 1.33-.37 3.42-.44 5-.09 1.9-1.4 2.94-2.63 4.2-1.53 1.57-2.32 3.61-3.31 5.52A28.22 28.22 0 0 1 8.6 49 12.17 12.17 0 0 0 6 54.81c-.25 1.42-.44 2.86-.58 4.32C6.6 58 7.73 57 7.81 55.2c.07-1.54-.65-3.63.44-4.96zm102.33-13.81v.07-.29.53-.28z"/><path class="cls-15" d="M18.92 39.95a6.38 6.38 0 0 1 2.37-1.33c1.12-.54 2.19-1.17 3.3-1.72a34.63 34.63 0 0 1 6.61-2.48c2.27-.58 4.64-.78 6.89-1.49a25.76 25.76 0 0 0 3.25-1.49 8.19 8.19 0 0 1 3.19-.64c1.06-.08 1.65-.91 2.45-1.5a28.82 28.82 0 0 1 3-1.68c1.83-1 3.16-2.65 4.69-4.06a41.34 41.34 0 0 1 5.85-4.33 54.06 54.06 0 0 1 12.74-6c9.36-2.94 19.44-2.86 29-.92 4.41.9 8.81 2.32 12.31 5.25s5.12 6.83 7.25 10.56 4.77 6.48 8.87 7.84c4.36 1.45 9 1.71 13.07 4 3.94 2.17 6.92 5.39 9.83 8.74 3.34 3.83 6.58 7.74 9.94 11.55a47.36 47.36 0 0 0 10.92 9A30.2 30.2 0 0 0 187 73.81a19.89 19.89 0 0 0 10.34-1.71l.41-.64A73.47 73.47 0 0 0 205 55.19a24.19 24.19 0 0 1-5.2 4.8 19.59 19.59 0 0 1-12.8 3.07 30.2 30.2 0 0 1-12.55-4.59 47.36 47.36 0 0 1-10.92-9c-3.36-3.81-6.6-7.72-9.94-11.55-2.91-3.35-5.89-6.57-9.83-8.74-4.09-2.26-8.71-2.52-13.07-4-4.1-1.36-6.76-4.16-8.87-7.84s-3.88-7.74-7.25-10.56-7.9-4.35-12.31-5.25c-9.54-1.94-19.62-2-29 .92a54.06 54.06 0 0 0-12.74 6 41.34 41.34 0 0 0-5.85 4.33c-1.53 1.41-2.86 3-4.69 4.06a28.82 28.82 0 0 0-3 1.68c-.8.59-1.39 1.42-2.45 1.5a8.19 8.19 0 0 0-3.19.64 25.76 25.76 0 0 1-3.25 1.49c-2.25.71-4.62.91-6.89 1.49a34.63 34.63 0 0 0-6.61 2.48c-1.11.55-2.18 1.18-3.3 1.72a6.38 6.38 0 0 0-2.37 1.33c-1.09 1.33-.37 3.42-.44 5-.09 1.9-1.4 2.94-2.63 4.2-1.53 1.57-2.32 3.61-3.31 5.52A28.22 28.22 0 0 1 8.6 49 12.17 12.17 0 0 0 6 54.81c-.25 1.42-.44 2.86-.58 4.32C6.6 58 7.73 57 7.81 55.2c.07-1.54-.65-3.63.44-5a6.38 6.38 0 0 1 2.37-1.33c1.12-.54 2.19-1.17 3.3-1.72a36.24 36.24 0 0 1 4.5-1.85 3.91 3.91 0 0 0 .06-.44c.07-1.49-.65-3.58.44-4.91z"/><path class="cls-16" d="M123.1 19.41v85.44H51.46V15.52c.61-.51 1.18-1.06 1.75-1.63s.87-.87 1.33-1.29l.22-.19.28-.25c.57-.51 1.17-1 1.79-1.45C58 9.84 59.18 9 60.39 8.27a54.06 54.06 0 0 1 12.74-6c9.36-2.94 19.44-2.86 29-.92 4.41.9 8.81 2.32 12.31 5.25a17.31 17.31 0 0 1 3.03 3.4c.44.62.85 1.26 1.24 1.92.11.16.2.33.3.5.29.49.57 1 .84 1.48.61 1.1 1.2 2.21 1.82 3.3l.24.4c.38.63.77 1.24 1.19 1.81z"/><path class="cls-17" d="M51.46 58.33h71.64v3.7H51.46zM51.46 36.66h71.64v3.7H51.46zM121.91 17.59H51.46v-2.07c.61-.51 1.18-1.06 1.75-1.63h66.64c.61 1.1 1.2 2.21 1.82 3.3z"/><path class="cls-18" d="M51.46 21.02h71.64v14.17H51.46z"/><path class="cls-17" d="M51.46 64.23h71.64V78.4H51.46z"/><path class="cls-18" d="M119 12.41H54.76l.28-.25c.57-.51 1.17-1 1.79-1.45C58 9.84 59.18 9 60.39 8.27a54.06 54.06 0 0 1 12.74-6c9.36-2.94 19.44-2.86 29-.92 4.41.9 8.81 2.32 12.31 5.25a17.31 17.31 0 0 1 3.03 3.4c.44.62.85 1.26 1.24 1.92.11.15.2.32.29.49z"/><path class="cls-17" d="M51.46 42.4h71.64v14.17H51.46z"/><path class="cls-18" d="M56.83 10.71V80.1H55V12.16c.61-.51 1.21-.99 1.83-1.45zM117.47 10c.44.62.85 1.26 1.24 1.92V80.1h-1.79V10zM55.04 82.85h63.95v18.35H55.04z"/><path class="cls-16" d="M57.92 84.6v15h17.3v-15zm15.3 13h-13.3v-11h13.3zM78.52 84.6v15h17.31v-15zm15.31 13H80.52v-11h13.31zM99 84.6v15h17.31v-15zm15.31 13H101v-11h13.31z"/></g></g></g></svg>