<svg xmlns="http://www.w3.org/2000/svg" viewBox="0 0 800.17 297.95"><defs><style>.cls-1{isolation:isolate}.cls-2{fill:#efb927}.cls-3,.cls-9{fill:#d89e1a}.cls-4{fill:#348229}.cls-5{fill:#50a047}.cls-6{fill:none;stroke:#063;stroke-miterlimit:10}.cls-7{opacity:.3}.cls-8{fill:#f5f5f5}.cls-9{opacity:.4;mix-blend-mode:multiply}.cls-10{fill:#8a5d00}.cls-11{fill:#d8a321}</style></defs><title>Asset 5</title><g class="cls-1"><g id="Layer_2" data-name="Layer 2"><g id="Objects"><path class="cls-2" d="M0 160.22s194.74-40.4 329.85-26.14S693 169.05 800 145.62V282H0z"/><path class="cls-3" d="M800 176.22s-194.74-40.4-329.85-26.14S107 185.05 0 161.62V298h800z"/><path class="cls-4" d="M202.08 161c-.05 11.74-6.94 18.49-18.77 18.66-6.83.1-13.67.14-20.5-.07-3.43-.1-4.71 1-4.61 4.55.21 8 .43 16-.07 24-.32 5 1.4 7.2 6 9 9.78 3.83 17.65 10.13 20.93 20.7 1.58 5.11.54 6.47-4.66 6.47h-74.5c-5.28 0-6.24-1.27-4.61-6.43 3.52-11.11 11.93-17.42 22.25-21.35 3.39-1.3 4.59-2.76 4.56-6.33-.18-19-.11-53.08-.15-72.08 0-1.28-.26-2.56-.37-3.67a5 5 0 0 0-1.28-.5c-8.5 0-17 0-25.49-.13-9.49-.11-17.31-6.4-17.55-15-.39-14.43-.38-28.9 0-43.33.2-8.05 7.09-13.76 15.06-13.52 8.85.27 14.52 5.87 15 14.78.21 4.29.35 8.59.58 12.88v9.05a7.08 7.08 0 1 0 14.16 0V61.86a6.07 6.07 0 0 0 0-.61v-3.23c.1-9.64 6.62-16.09 15.51-15.88s14.73 6.71 14.76 16.09q.08 22.74.05 45.49c0 11.11-.07 22.21-.1 33.32v4.86a6.86 6.86 0 0 0 8.85 6.65c3.13-1.05 4.23-4.13 4.27-9.86.11-14.13 0-28.26.08-42.4 0-9.52 6.3-16.22 15.23-16.3S202 86.56 202 96.09q.17 32.48.08 64.91z"/><path class="cls-5" d="M128 58v3.23a6.07 6.07 0 0 1 0 .61v36.84a7.08 7.08 0 1 1-14.16 0v-9.05c-.23-4.29-.37-8.59-.58-12.88-.45-8.91-6.12-14.51-15-14.78-8-.24-14.86 5.47-15.06 13.52-.36 14.43-.37 28.9 0 43.33.24 8.61 8.06 14.9 17.55 15 8.5.1 17 .08 25.49.13a5 5 0 0 1 1.28.5c.11 1.11.36 2.39.37 3.67 0 19 0 53.08.15 72.08 0 3.57-1.17 5-4.56 6.33-10.32 3.93-18.73 10.24-22.25 21.35-1.63 5.16-.67 6.42 4.61 6.43h36.64V42.17c-8.31.27-14.37 6.57-14.48 15.83z"/><path class="cls-6" d="M154.51 58.61l5.65-5.53M154.89 60.17l7.26-3.12M135.9 93.34l-5.9-5.26M139 91.41l-6.75-4.12M115.25 135.27l1.86-7.68M118.42 137.09l.45-7.89M80.17 118.89l7.78-1.38M79.77 122.52l7.41-2.75M162.9 209.86l-7.1 3.45M162.29 206.26l-6.37 4.67M124.75 178.34l7.15 3.36M122.33 181.08l7.63 2.02M173.23 113.76l-5.9-5.26M175.13 113.06l-4.35-6.59M181.8 84l-5.9-5.25M183.57 83.39l-4.09-6.76M204.74 132.61l-5.9-5.26M208.14 130.06l-7.35-2.88M168.8 150.34l-5.9-5.26M170.65 149.68l-4.24-6.67M189.17 171.83l2.39-7.53M192.11 173.85l1.18-7.81M84.13 75.87l-5.89-5.26M86.03 75.18l-4.34-6.6"/><path class="cls-7 cls-8" d="M90.79 75.87s.5 4.85.86 12.12c.09 1.82.19 3.79.26 5.87s.17 4.28.2 6.55.12 4.62.13 7l.09 1.72.26 1.56a16.13 16.13 0 0 0 1.06 3.13 15.71 15.71 0 0 0 9.38 8.48 17.75 17.75 0 0 0 3 .67c.51 0 1 .11 1.51.14l1.58.06c2.08.06 4.05.16 5.87.26 7.27.36 12.12.86 12.12.86s-4.85.5-12.12.86c-1.82.1-3.79.19-5.87.26l-1.59.06h-1.73a17.29 17.29 0 0 1-3.55-.61 17 17 0 0 1-6.65-3.54 18.43 18.43 0 0 1-4.69-6.24 19.1 19.1 0 0 1-1.21-3.76c-.12-.66-.21-1.36-.29-2v-1.87c0-2.39.09-4.73.13-7s.13-4.47.2-6.55.16-4.05.26-5.87c.29-7.31.79-12.16.79-12.16zM194.67 95.62s.5 3.9.86 9.74c.09 1.46.19 3 .26 4.72s.17 3.44.2 5.27.12 3.71.13 5.63l.05 5.81-.05 5.81c0 1.92-.09 3.8-.13 5.63-.1 3.65-.27 7.06-.46 10-.36 5.84-.86 9.74-.86 9.74s-.5-3.9-.86-9.74c-.19-2.92-.35-6.33-.46-10 0-1.83-.13-3.71-.13-5.63l-.05-5.81.05-5.81c0-1.92.09-3.8.13-5.63s.13-3.59.2-5.27.16-3.26.26-4.72c.36-5.84.86-9.74.86-9.74z"/><path class="cls-9" d="M102.82 244.34l55.7 53.61h155.67l-133.78-53.6-77.59-.01z"/><path class="cls-2" d="M264.14 175.5l89.05-115.98 95.27 115.98H264.14z"/><path class="cls-10" d="M353.19 59.52L313.84 175.5h-49.7l89.05-115.98z"/><path class="cls-11" d="M379.8 91.91h-37.6l-10.95-3.82-5.11 6.66 13.38 5.06h46.77l-6.49-7.9zM316.54 107.25l17.67 8.2h64.93l4.37 5.33h-71.56l-18.74-9.19 3.33-4.34zM300.55 128.08l25.59 11.17h92.55l4.88 5.95h-99.21l-27.68-12.09 3.87-5.03z"/><path class="cls-9" d="M264.14 175.5L466 297.95h194.5L448.46 175.5H264.14z"/><path class="cls-2" d="M472.99 181.42L612.3 0l149.03 181.42H472.99z"/><path class="cls-10" d="M612.3 0l-61.56 181.42h-77.75L612.3 0z"/><path class="cls-11" d="M653.92 50.67h-58.81l-17.13-5.98-8 10.42 20.93 7.92h73.16l-10.15-12.36zM554.97 74.67l27.64 12.83h101.56l6.84 8.33H579.07l-29.32-14.38 5.22-6.78zM529.95 107.25l40.03 17.48h144.77l7.64 9.3H567.2l-43.3-18.91 6.05-7.87z"/><path class="cls-9" d="M472.99 181.42l198.96 116.53h128.22v-84.99l-38.84-31.54H472.99z"/></g></g></g></svg>