<svg xmlns="http://www.w3.org/2000/svg" viewBox="0 0 800.17 297.95"><defs><style>.cls-1{isolation:isolate;}.cls-2{fill:#efb927;}.cls-3,.cls-9{fill:#d89e1a;}.cls-4{fill:#348229;}.cls-5{fill:#50a047;}.cls-6{fill:none;stroke:#063;stroke-miterlimit:10;}.cls-7{opacity:0.3;}.cls-8{fill:#f5f5f5;}.cls-9{opacity:0.4;mix-blend-mode:multiply;}.cls-10{fill:#8a5d00;}.cls-11{fill:#d8a321;}</style></defs><title>Asset 5</title><g class="cls-1"><g id="Layer_2" data-name="Layer 2"><g id="Objects"><path class="cls-2" d="M0,160.22s194.74-40.4,329.85-26.14S693,169.05,800,145.62V282H0Z"/><path class="cls-3" d="M800,176.22s-194.74-40.4-329.85-26.14S107,185.05,0,161.62V298H800Z"/><path class="cls-4" d="M202.08,161c-.05,11.74-6.94,18.49-18.77,18.66-6.83.1-13.67.14-20.5-.07-3.43-.1-4.71,1-4.61,4.55.21,8,.43,16-.07,24-.32,5,1.4,7.2,6,9,9.78,3.83,17.65,10.13,20.93,20.7,1.58,5.11.54,6.47-4.66,6.47q-37.24,0-74.5,0c-5.28,0-6.24-1.27-4.61-6.43,3.52-11.11,11.93-17.42,22.25-21.35,3.39-1.3,4.59-2.76,4.56-6.33-.18-19-.11-53.08-.15-72.08,0-1.28-.26-2.56-.37-3.67a5,5,0,0,0-1.28-.5c-8.5,0-17,0-25.49-.13-9.49-.11-17.31-6.4-17.55-15-.39-14.43-.38-28.9,0-43.33.2-8.05,7.09-13.76,15.06-13.52,8.85.27,14.52,5.87,15,14.78.21,4.29.35,8.59.58,12.88v9.05a7.08,7.08,0,1,0,14.16,0V61.86a6.07,6.07,0,0,0,0-.61c0-1,0-2.08,0-3.23.1-9.64,6.62-16.09,15.51-15.88s14.73,6.71,14.76,16.09q.08,22.74.05,45.49c0,11.11-.07,22.21-.1,33.32v4.86a6.86,6.86,0,0,0,8.85,6.65c3.13-1.05,4.23-4.13,4.27-9.86.11-14.13,0-28.26.08-42.4,0-9.52,6.3-16.22,15.23-16.3S202,86.56,202,96.09Q202.17,128.57,202.08,161Z"/><path class="cls-5" d="M128,58c0,1.15,0,2.22,0,3.23a6.07,6.07,0,0,1,0,.61V98.68a7.08,7.08,0,1,1-14.16,0V89.63c-.23-4.29-.37-8.59-.58-12.88-.45-8.91-6.12-14.51-15-14.78-8-.24-14.86,5.47-15.06,13.52-.36,14.43-.37,28.9,0,43.33.24,8.61,8.06,14.9,17.55,15,8.5.1,17,.08,25.49.13a5,5,0,0,1,1.28.5c.11,1.11.36,2.39.37,3.67,0,19,0,53.08.15,72.08,0,3.57-1.17,5-4.56,6.33-10.32,3.93-18.73,10.24-22.25,21.35-1.63,5.16-.67,6.42,4.61,6.43q18.32,0,36.64,0V42.17C134.17,42.44,128.11,48.74,128,58Z"/><line class="cls-6" x1="154.51" y1="58.61" x2="160.16" y2="53.08"/><line class="cls-6" x1="154.89" y1="60.17" x2="162.15" y2="57.05"/><line class="cls-6" x1="135.9" y1="93.34" x2="130" y2="88.08"/><line class="cls-6" x1="139" y1="91.41" x2="132.25" y2="87.29"/><line class="cls-6" x1="115.25" y1="135.27" x2="117.11" y2="127.59"/><line class="cls-6" x1="118.42" y1="137.09" x2="118.87" y2="129.2"/><line class="cls-6" x1="80.17" y1="118.89" x2="87.95" y2="117.51"/><line class="cls-6" x1="79.77" y1="122.52" x2="87.18" y2="119.77"/><line class="cls-6" x1="162.9" y1="209.86" x2="155.8" y2="213.31"/><line class="cls-6" x1="162.29" y1="206.26" x2="155.92" y2="210.93"/><line class="cls-6" x1="124.75" y1="178.34" x2="131.9" y2="181.7"/><line class="cls-6" x1="122.33" y1="181.08" x2="129.96" y2="183.1"/><line class="cls-6" x1="173.23" y1="113.76" x2="167.33" y2="108.5"/><line class="cls-6" x1="175.13" y1="113.06" x2="170.78" y2="106.47"/><line class="cls-6" x1="181.8" y1="84" x2="175.9" y2="78.75"/><line class="cls-6" x1="183.57" y1="83.39" x2="179.48" y2="76.63"/><line class="cls-6" x1="204.74" y1="132.61" x2="198.84" y2="127.35"/><line class="cls-6" x1="208.14" y1="130.06" x2="200.79" y2="127.18"/><line class="cls-6" x1="168.8" y1="150.34" x2="162.9" y2="145.08"/><line class="cls-6" x1="170.65" y1="149.68" x2="166.41" y2="143.01"/><line class="cls-6" x1="189.17" y1="171.83" x2="191.56" y2="164.3"/><line class="cls-6" x1="192.11" y1="173.85" x2="193.29" y2="166.04"/><line class="cls-6" x1="84.13" y1="75.87" x2="78.24" y2="70.61"/><line class="cls-6" x1="86.03" y1="75.18" x2="81.69" y2="68.58"/><g class="cls-7"><path class="cls-8" d="M90.79,75.87s.5,4.85.86,12.12c.09,1.82.19,3.79.26,5.87s.17,4.28.2,6.55.12,4.62.13,7l.09,1.72.26,1.56a16.13,16.13,0,0,0,1.06,3.13,15.71,15.71,0,0,0,9.38,8.48,17.75,17.75,0,0,0,3,.67c.51,0,1,.11,1.51.14l1.58.06c2.08.06,4.05.16,5.87.26,7.27.36,12.12.86,12.12.86s-4.85.5-12.12.86c-1.82.1-3.79.19-5.87.26l-1.59.06c-.55,0-1.14,0-1.73,0a17.29,17.29,0,0,1-3.55-.61,17,17,0,0,1-6.65-3.54,18.43,18.43,0,0,1-4.69-6.24,19.1,19.1,0,0,1-1.21-3.76c-.12-.66-.21-1.36-.29-2l0-.9,0-.45v-.52c0-2.39.09-4.73.13-7s.13-4.47.2-6.55.16-4.05.26-5.87C90.29,80.72,90.79,75.87,90.79,75.87Z"/></g><g class="cls-7"><path class="cls-8" d="M194.67,95.62s.5,3.9.86,9.74c.09,1.46.19,3,.26,4.72s.17,3.44.2,5.27.12,3.71.13,5.63l.05,5.81-.05,5.81c0,1.92-.09,3.8-.13,5.63-.1,3.65-.27,7.06-.46,10-.36,5.84-.86,9.74-.86,9.74s-.5-3.9-.86-9.74c-.19-2.92-.35-6.33-.46-10,0-1.83-.13-3.71-.13-5.63l-.05-5.81.05-5.81c0-1.92.09-3.8.13-5.63s.13-3.59.2-5.27.16-3.26.26-4.72C194.17,99.52,194.67,95.62,194.67,95.62Z"/></g><polygon class="cls-9" points="102.82 244.34 158.52 297.95 314.19 297.95 180.41 244.35 102.82 244.34"/><polygon class="cls-2" points="264.14 175.5 353.19 59.52 448.46 175.5 264.14 175.5"/><polygon class="cls-10" points="353.19 59.52 313.84 175.5 264.14 175.5 353.19 59.52"/><polygon class="cls-11" points="379.8 91.91 342.2 91.91 331.25 88.09 326.14 94.75 339.52 99.81 386.29 99.81 379.8 91.91"/><polygon class="cls-11" points="316.54 107.25 334.21 115.45 399.14 115.45 403.51 120.78 331.95 120.78 313.21 111.59 316.54 107.25"/><polygon class="cls-11" points="300.55 128.08 326.14 139.25 418.69 139.25 423.57 145.2 324.36 145.2 296.68 133.11 300.55 128.08"/><polygon class="cls-9" points="264.14 175.5 466 297.95 660.5 297.95 448.46 175.5 264.14 175.5"/><polygon class="cls-2" points="472.99 181.42 612.3 0 761.33 181.42 472.99 181.42"/><polygon class="cls-10" points="612.3 0 550.74 181.42 472.99 181.42 612.3 0"/><polygon class="cls-11" points="653.92 50.67 595.11 50.67 577.98 44.69 569.98 55.11 590.91 63.03 664.07 63.03 653.92 50.67"/><polygon class="cls-11" points="554.97 74.67 582.61 87.5 684.17 87.5 691.01 95.83 579.07 95.83 549.75 81.45 554.97 74.67"/><polygon class="cls-11" points="529.95 107.25 569.98 124.73 714.75 124.73 722.39 134.03 567.2 134.03 523.9 115.12 529.95 107.25"/><polygon class="cls-9" points="472.99 181.42 671.95 297.95 800.17 297.95 800.17 212.96 761.33 181.42 472.99 181.42"/></g></g></g></svg>