<svg xmlns="http://www.w3.org/2000/svg" viewBox="0 0 230.93 10.84"><defs><style>.cls-1{fill:#fff}</style></defs><title>Asset 6</title><g id="Layer_2" data-name="Layer 2"><g id="Objects"><g id="_Group_" data-name="&amp;lt;Group&amp;gt;"><g id="_Group_2" data-name="&amp;lt;Group&amp;gt;"><path id="_Compound_Path_" data-name="&amp;lt;Compound Path&amp;gt;" class="cls-1" d="M7.46 8.34v-.12a6.62 6.62 0 0 1-1 .46 5.81 5.81 0 0 1-1.07.27A7.81 7.81 0 0 1 4.14 9a7.14 7.14 0 0 1-1.67-.18 4.58 4.58 0 0 1-1.33-.53 2.51 2.51 0 0 1-.85-.81 1.86 1.86 0 0 1-.29-1 2 2 0 0 1 1.15-1.75 6.23 6.23 0 0 1 3-.64A7.92 7.92 0 0 1 6 4.27a6.28 6.28 0 0 1 1.45.56V3a.63.63 0 0 1 .31-.57 1.67 1.67 0 0 1 .88-.19 1.79 1.79 0 0 1 .88.18.57.57 0 0 1 .32.58v5.34a.56.56 0 0 1-.33.52 1.84 1.84 0 0 1-.86.14 1.79 1.79 0 0 1-.85-.18.56.56 0 0 1-.34-.48zM2.52 6.55a1.21 1.21 0 0 0 .32.84 2 2 0 0 0 .87.52 4 4 0 0 0 1.21.18 4.12 4.12 0 0 0 1.21-.17A2 2 0 0 0 7 7.41a1.21 1.21 0 0 0 .33-.86A1.18 1.18 0 0 0 7 5.71a2.08 2.08 0 0 0-.88-.54A3.86 3.86 0 0 0 4.89 5a3.74 3.74 0 0 0-1.23.19 1.88 1.88 0 0 0-.84.54 1.23 1.23 0 0 0-.3.82z"/><path id="_Compound_Path_2" data-name="&amp;lt;Compound Path&amp;gt;" class="cls-1" d="M18.54 6.86h-4.92a1 1 0 0 0 .34.73 2.13 2.13 0 0 0 .89.48 4.41 4.41 0 0 0 1.23.16 6.09 6.09 0 0 0 .82-.05 4.42 4.42 0 0 0 .73-.18 6.71 6.71 0 0 0 .64-.23l.73-.33a1.5 1.5 0 0 1 .55-.08 1.59 1.59 0 0 1 .62.1c.16.07.24.16.24.29s-.09.24-.27.39a2.87 2.87 0 0 1-.8.42A7.16 7.16 0 0 1 18 8.9a11.53 11.53 0 0 1-1.84.1 8.6 8.6 0 0 1-3.76-.67 2 2 0 0 1-1.34-1.82 1.68 1.68 0 0 1 .33-1 2.68 2.68 0 0 1 1-.79 5.69 5.69 0 0 1 1.56-.51A11.1 11.1 0 0 1 16 4.07a9.25 9.25 0 0 1 2.52.3 4 4 0 0 1 1.58.78 1.35 1.35 0 0 1 .52 1c0 .31-.18.51-.54.6a6.61 6.61 0 0 1-1.54.11zm-4.91-.69h4.55a1.21 1.21 0 0 0-.69-.94 3.47 3.47 0 0 0-1.59-.31 3.32 3.32 0 0 0-1.54.31 1.32 1.32 0 0 0-.74.93z"/><path id="_Compound_Path_3" data-name="&amp;lt;Compound Path&amp;gt;" class="cls-1" d="M30 7.44a1 1 0 0 1-.51.86 3.83 3.83 0 0 1-1.49.55 13.37 13.37 0 0 1-2.43.15 11.54 11.54 0 0 1-2.32-.2 4.29 4.29 0 0 1-1.43-.5c-.31-.2-.46-.4-.46-.61s.1-.25.3-.34a1.71 1.71 0 0 1 .75-.14 1.54 1.54 0 0 1 .61.09 1.58 1.58 0 0 1 .4.26 2.55 2.55 0 0 0 .93.49 5.36 5.36 0 0 0 1.47.16A3.94 3.94 0 0 0 27 8.08q.48-.16.48-.37c0-.21-.17-.37-.5-.47a11.07 11.07 0 0 0-1.6-.24q-1.3-.16-2.11-.33A4.48 4.48 0 0 1 22 6.18a.81.81 0 0 1-.49-.69.89.89 0 0 1 .45-.69 3.66 3.66 0 0 1 1.33-.52 9.94 9.94 0 0 1 2.12-.19 13.92 13.92 0 0 1 1.75.1 7.3 7.3 0 0 1 1.3.26 2.71 2.71 0 0 1 .79.37c.18.13.27.26.27.39s-.1.25-.29.34a2 2 0 0 1-.82.13 1.76 1.76 0 0 1-.66-.11 4.07 4.07 0 0 1-.62-.32 2.53 2.53 0 0 0-.7-.25 4.08 4.08 0 0 0-1-.11 3.83 3.83 0 0 0-1.18.11c-.3.09-.45.21-.45.35s.11.23.33.31a4.41 4.41 0 0 0 .89.2l1.55.2a15 15 0 0 1 1.91.33 3.66 3.66 0 0 1 1.12.45.73.73 0 0 1 .4.6z"/><path id="_Compound_Path_4" data-name="&amp;lt;Compound Path&amp;gt;" class="cls-1" d="M32.55 3.51a2.32 2.32 0 0 1-.9-.16q-.37-.16-.37-.44c0-.17.13-.31.38-.43a2.19 2.19 0 0 1 .89-.17 2.29 2.29 0 0 1 .86.15q.38.15.38.44c0 .19-.12.33-.37.44a2.2 2.2 0 0 1-.87.17zm1.24 1.26v3.52a.6.6 0 0 1-.36.55 2 2 0 0 1-.91.19 1.83 1.83 0 0 1-.9-.19.6.6 0 0 1-.34-.55V4.81a.58.58 0 0 1 .34-.54 1.91 1.91 0 0 1 .9-.18 2 2 0 0 1 .91.18.56.56 0 0 1 .36.5z"/><path id="_Compound_Path_5" data-name="&amp;lt;Compound Path&amp;gt;" class="cls-1" d="M44.79 5v3.51a2 2 0 0 1-.27 1 2 2 0 0 1-.86.72 5.34 5.34 0 0 1-1.54.42 16.82 16.82 0 0 1-2.37.14 13.74 13.74 0 0 1-2.32-.18 5.86 5.86 0 0 1-1.57-.46q-.55-.28-.55-.57c0-.15.1-.27.31-.36a1.82 1.82 0 0 1 .75-.14 1.91 1.91 0 0 1 1 .24l.42.24a2.62 2.62 0 0 0 .48.21 3.18 3.18 0 0 0 .63.13 7.65 7.65 0 0 0 .85 0 6.69 6.69 0 0 0 1.51-.13 1.49 1.49 0 0 0 .74-.28.93.93 0 0 0 .24-.49q0-.27.05-.87a4.41 4.41 0 0 1-1.34.6 7 7 0 0 1-1.81.21 7 7 0 0 1-2.2-.31 3.29 3.29 0 0 1-1.45-.87A1.88 1.88 0 0 1 35 6.44a1.68 1.68 0 0 1 .31-1 2.45 2.45 0 0 1 .88-.75 4.92 4.92 0 0 1 1.32-.46 8.09 8.09 0 0 1 1.64-.15 7.65 7.65 0 0 1 1.85.2 5 5 0 0 1 1.45.62v-.16a.54.54 0 0 1 .32-.49 1.74 1.74 0 0 1 .83-.17 1.44 1.44 0 0 1 1 .23.87.87 0 0 1 .19.69zm-7.28 1.52a1.21 1.21 0 0 0 .67 1.12A3.46 3.46 0 0 0 39.9 8a4.19 4.19 0 0 0 1.18-.16 2.21 2.21 0 0 0 .92-.48 1.05 1.05 0 0 0 .35-.8 1.29 1.29 0 0 0-.68-1.16 3.38 3.38 0 0 0-1.78-.4 3.27 3.27 0 0 0-1.73.4 1.25 1.25 0 0 0-.65 1.12z"/><path id="_Compound_Path_6" data-name="&amp;lt;Compound Path&amp;gt;" class="cls-1" d="M48.78 4.75v.15a4.87 4.87 0 0 1 1.45-.62 7.42 7.42 0 0 1 1.77-.2 6.89 6.89 0 0 1 1.78.21 2.58 2.58 0 0 1 1.22.59 1 1 0 0 1 .32.48 2.46 2.46 0 0 1 .07.66v2.27a.6.6 0 0 1-.35.55 2.25 2.25 0 0 1-1.81 0 .6.6 0 0 1-.35-.55v-2a1.19 1.19 0 0 0-.35-.92A2.11 2.11 0 0 0 51.15 5a3.66 3.66 0 0 0-1.22.19 1.68 1.68 0 0 0-.81.53 2 2 0 0 0-.18 1v1.57a.6.6 0 0 1-.35.56 2 2 0 0 1-.91.18 1.83 1.83 0 0 1-.89-.19.6.6 0 0 1-.35-.55V4.77a.56.56 0 0 1 .31-.52 1.8 1.8 0 0 1 .86-.17 2.2 2.2 0 0 1 .6.08 1 1 0 0 1 .43.23.49.49 0 0 1 .14.36z"/><path id="_Compound_Path_7" data-name="&amp;lt;Compound Path&amp;gt;" class="cls-1" d="M64.06 6.86h-4.91a1 1 0 0 0 .35.73 2.14 2.14 0 0 0 .89.48 4.41 4.41 0 0 0 1.23.16 6.14 6.14 0 0 0 .82-.05 4.5 4.5 0 0 0 .72-.18q.35-.11.64-.23l.76-.34a1.5 1.5 0 0 1 .55-.08 1.6 1.6 0 0 1 .63.1c.16.07.24.16.24.29s-.09.24-.27.39a2.85 2.85 0 0 1-.81.42 7.13 7.13 0 0 1-1.35.34 11.57 11.57 0 0 1-1.86.11 8.6 8.6 0 0 1-3.76-.67 2 2 0 0 1-1.34-1.82 1.69 1.69 0 0 1 .33-1 2.68 2.68 0 0 1 1-.79 5.69 5.69 0 0 1 1.56-.51 11.1 11.1 0 0 1 2.06-.18 9.25 9.25 0 0 1 2.52.3 4 4 0 0 1 1.58.78 1.35 1.35 0 0 1 .52 1q0 .46-.54.6a6.6 6.6 0 0 1-1.56.15zm-4.91-.69h4.55a1.21 1.21 0 0 0-.7-.94 3.47 3.47 0 0 0-1.59-.31 3.33 3.33 0 0 0-1.54.31 1.32 1.32 0 0 0-.72.93z"/><path id="_Compound_Path_8" data-name="&amp;lt;Compound Path&amp;gt;" class="cls-1" d="M74.3 8.34v-.12a6.65 6.65 0 0 1-1 .46 5.83 5.83 0 0 1-1.07.27A7.84 7.84 0 0 1 71 9a7.14 7.14 0 0 1-1.67-.18 4.59 4.59 0 0 1-1.33-.5 2.52 2.52 0 0 1-.85-.81 1.86 1.86 0 0 1-.29-1A2 2 0 0 1 68 4.73a6.23 6.23 0 0 1 3-.64 7.9 7.9 0 0 1 1.83.18 6.25 6.25 0 0 1 1.45.56V3a.63.63 0 0 1 .31-.57 1.67 1.67 0 0 1 .88-.19 1.79 1.79 0 0 1 .88.18.57.57 0 0 1 .31.52v5.4a.56.56 0 0 1-.33.52 1.84 1.84 0 0 1-.86.17 1.79 1.79 0 0 1-.85-.18.56.56 0 0 1-.32-.51zm-4.94-1.79a1.21 1.21 0 0 0 .32.84 1.94 1.94 0 0 0 .87.52 3.93 3.93 0 0 0 1.2.18A4.11 4.11 0 0 0 73 7.92a2 2 0 0 0 .87-.51 1.21 1.21 0 0 0 .33-.86 1.19 1.19 0 0 0-.33-.84 2.08 2.08 0 0 0-.88-.54A3.86 3.86 0 0 0 71.73 5a3.74 3.74 0 0 0-1.23.19 1.89 1.89 0 0 0-.84.54 1.24 1.24 0 0 0-.3.82z"/><path id="_Compound_Path_9" data-name="&amp;lt;Compound Path&amp;gt;" class="cls-1" d="M84.56 3v1.82A7.16 7.16 0 0 1 86 4.28a7.41 7.41 0 0 1 1.82-.19 7.58 7.58 0 0 1 2.18.29 3.32 3.32 0 0 1 1.46.84A1.82 1.82 0 0 1 92 6.51a1.87 1.87 0 0 1-.29 1 2.54 2.54 0 0 1-.84.8 4.57 4.57 0 0 1-1.34.52A7.6 7.6 0 0 1 87.8 9a8.34 8.34 0 0 1-1.09 0 5.34 5.34 0 0 1-.87-.18 5 5 0 0 1-.61-.22c-.17-.08-.39-.19-.67-.35v.12a.56.56 0 0 1-.34.52 1.87 1.87 0 0 1-.86.18 1.75 1.75 0 0 1-.85-.18.56.56 0 0 1-.32-.52V3a.62.62 0 0 1 .31-.56 1.64 1.64 0 0 1 .86-.19 1.8 1.8 0 0 1 .89.18.57.57 0 0 1 .31.57zm.12 3.62a1.22 1.22 0 0 0 .68 1.12 3.61 3.61 0 0 0 1.8.39 3.18 3.18 0 0 0 1.63-.4 1.32 1.32 0 0 0 .4-2 1.82 1.82 0 0 0-.81-.54A3.62 3.62 0 0 0 87.16 5a4 4 0 0 0-1.28.19 2 2 0 0 0-.88.55 1.24 1.24 0 0 0-.32.84z"/><path id="_Compound_Path_10" data-name="&amp;lt;Compound Path&amp;gt;" class="cls-1" d="M95.26 9.19l.23-.27-3.09-3.78a1 1 0 0 1-.29-.47.38.38 0 0 1 .17-.29 1.25 1.25 0 0 1 .46-.21 2.22 2.22 0 0 1 .6-.08 1.6 1.6 0 0 1 .82.17 1.57 1.57 0 0 1 .49.48l2.13 3 2-2.79a4.08 4.08 0 0 1 .43-.53 1 1 0 0 1 .41-.26 2.15 2.15 0 0 1 .61-.07 2 2 0 0 1 .55.07 1 1 0 0 1 .4.2.36.36 0 0 1 .14.26l-.12.24a2.43 2.43 0 0 1-.2.32l-3.27 4.15a4.69 4.69 0 0 1-.83.86 2.88 2.88 0 0 1-1.07.48 7.67 7.67 0 0 1-1.8.17 8.72 8.72 0 0 1-1.66-.12c-.37-.08-.55-.22-.55-.42s.09-.25.26-.32a2 2 0 0 1 .78-.11h.81a2.9 2.9 0 0 0 .68-.06 1.19 1.19 0 0 0 .45-.22 3.32 3.32 0 0 0 .46-.4z"/></g><g id="_Group_3" data-name="&amp;lt;Group&amp;gt;"><path id="_Path_" data-name="&amp;lt;Path&amp;gt;" class="cls-1" d="M131.64 4.18h.6v-.36a1.32 1.32 0 0 1 .3-.91 1.84 1.84 0 0 1 1-.49 9.76 9.76 0 0 1 2-.15c1.47 0 2.2.17 2.2.52 0 .11-.08.21-.23.29a1.14 1.14 0 0 1-.54.12H135.86a1.34 1.34 0 0 0-.88.2.78.78 0 0 0-.19.56v.29h.61c1 0 1.43.14 1.43.42s-.12.32-.38.38a5.39 5.39 0 0 1-1.05.08h-.61v3.16a.59.59 0 0 1-.36.55 1.89 1.89 0 0 1-.91.19 1.86 1.86 0 0 1-.89-.19.59.59 0 0 1-.35-.55V5.06h-.69a2.35 2.35 0 0 1-.86-.12c-.2-.08-.3-.19-.3-.32q0-.44 1.26-.44"/><path id="_Path_2" data-name="&amp;lt;Path&amp;gt;" class="cls-1" d="M139.86 7.27v1a.6.6 0 0 1-.36.55 2 2 0 0 1-.91.19 1.85 1.85 0 0 1-.9-.19.6.6 0 0 1-.35-.55V4.9q0-.82 1.22-.82a1.62 1.62 0 0 1 .9.19.73.73 0 0 1 .31.57 3.49 3.49 0 0 1 .92-.57 3.45 3.45 0 0 1 1.31-.19 6.09 6.09 0 0 1 1.54.19c.5.13.75.3.75.51s-.11.27-.32.37a1.62 1.62 0 0 1-.68.15 6.08 6.08 0 0 1-.67-.08 6.43 6.43 0 0 0-.93-.08 2.48 2.48 0 0 0-.9.14 1.2 1.2 0 0 0-.55.42 1.85 1.85 0 0 0-.26.66 5.22 5.22 0 0 0-.07.93"/><path id="_Compound_Path_11" data-name="&amp;lt;Compound Path&amp;gt;" class="cls-1" d="M151.41 6.85h-4.91a1 1 0 0 0 .34.73 2.19 2.19 0 0 0 .89.48 4.45 4.45 0 0 0 1.23.16 5.68 5.68 0 0 0 .82-.05 4.3 4.3 0 0 0 .72-.16 6 6 0 0 0 .64-.23l.77-.34a1.5 1.5 0 0 1 .55-.08 1.6 1.6 0 0 1 .63.1c.16.07.24.16.24.29s-.09.24-.26.38a2.88 2.88 0 0 1-.81.43 7.39 7.39 0 0 1-1.35.34A11.66 11.66 0 0 1 149 9a8.59 8.59 0 0 1-3.76-.67 2 2 0 0 1-1.35-1.82 1.68 1.68 0 0 1 .34-1 2.62 2.62 0 0 1 1-.79 5.6 5.6 0 0 1 1.56-.51 11 11 0 0 1 2.06-.18 9.2 9.2 0 0 1 2.53.3 3.89 3.89 0 0 1 1.58.78 1.34 1.34 0 0 1 .52 1q0 .46-.54.59a6.6 6.6 0 0 1-1.53.14m-4.91-.69h4.5a1.2 1.2 0 0 0-.69-.93 3.48 3.48 0 0 0-1.59-.31 3.3 3.3 0 0 0-1.54.31 1.32 1.32 0 0 0-.73.93"/><path id="_Compound_Path_12" data-name="&amp;lt;Compound Path&amp;gt;" class="cls-1" d="M161.86 6.85h-4.91a1 1 0 0 0 .34.73 2.18 2.18 0 0 0 .89.48 4.44 4.44 0 0 0 1.23.16 5.58 5.58 0 0 0 .82-.05A4.33 4.33 0 0 0 161 8a6 6 0 0 0 .64-.23l.76-.34a1.51 1.51 0 0 1 .55-.08 1.61 1.61 0 0 1 .63.1c.16.07.23.16.23.29s-.09.24-.26.38a2.69 2.69 0 0 1-.8.43 7.33 7.33 0 0 1-1.35.34 11.66 11.66 0 0 1-1.87.13 8.61 8.61 0 0 1-3.76-.67 2 2 0 0 1-1.35-1.82 1.66 1.66 0 0 1 .34-1 2.66 2.66 0 0 1 1-.79 5.63 5.63 0 0 1 1.56-.51 11.11 11.11 0 0 1 2.06-.18 9.29 9.29 0 0 1 2.53.3 3.87 3.87 0 0 1 1.57.78 1.36 1.36 0 0 1 .53 1c0 .3-.19.5-.54.59a6.63 6.63 0 0 1-1.53.14m-4.91-.69h4.55a1.22 1.22 0 0 0-.69-.93 3.5 3.5 0 0 0-1.59-.31 3.32 3.32 0 0 0-1.54.31 1.31 1.31 0 0 0-.73.93"/><path id="_Compound_Path_13" data-name="&amp;lt;Compound Path&amp;gt;" class="cls-1" d="M167.36 4.76v.15a5.54 5.54 0 0 1 1.48-.62 6.74 6.74 0 0 1 1.73-.2 7.56 7.56 0 0 1 2.14.29 3.63 3.63 0 0 1 1.54.85 1.82 1.82 0 0 1 .24 2.36 2.64 2.64 0 0 1-.9.79 5 5 0 0 1-1.35.49 7.85 7.85 0 0 1-1.67.17 6.63 6.63 0 0 1-1.81-.21 5.66 5.66 0 0 1-1.4-.61V10c0 .53-.4.8-1.2.8a1.49 1.49 0 0 1-.94-.21.8.8 0 0 1-.22-.59V4.77a.56.56 0 0 1 .31-.52 1.83 1.83 0 0 1 .86-.17 1.87 1.87 0 0 1 .87.18.55.55 0 0 1 .34.51m4.92 1.77a1.21 1.21 0 0 0-.3-.83 1.91 1.91 0 0 0-.84-.53 3.63 3.63 0 0 0-1.21-.18 3.57 3.57 0 0 0-1.75.4 1.27 1.27 0 0 0-.72 1.17 1.25 1.25 0 0 0 .71 1.13 3.48 3.48 0 0 0 1.76.4 3.75 3.75 0 0 0 1.16-.18 1.94 1.94 0 0 0 .86-.53 1.23 1.23 0 0 0 .32-.85"/><path id="_Compound_Path_14" data-name="&amp;lt;Compound Path&amp;gt;" class="cls-1" d="M177.34 3.51a2.29 2.29 0 0 1-.89-.16c-.25-.1-.37-.25-.37-.44s.13-.31.38-.43a2.21 2.21 0 0 1 .89-.17 2.3 2.3 0 0 1 .86.15c.25.1.38.25.38.45s-.12.33-.37.44a2.25 2.25 0 0 1-.88.16m1.24 1.26v3.52a.59.59 0 0 1-.36.55 2 2 0 0 1-.91.19 1.85 1.85 0 0 1-.9-.19.61.61 0 0 1-.34-.55V4.8a.59.59 0 0 1 .34-.54 1.9 1.9 0 0 1 .9-.18 2 2 0 0 1 .91.18.56.56 0 0 1 .36.51"/><path id="_Path_3" data-name="&amp;lt;Path&amp;gt;" class="cls-1" d="M186.67 8.48l-2.21-1.77-1.36.62v1a.59.59 0 0 1-.38.54 1.91 1.91 0 0 1-.88.19 1.84 1.84 0 0 1-.91-.19.6.6 0 0 1-.33-.55V3.09a.71.71 0 0 1 .32-.62 1.68 1.68 0 0 1 .92-.21 1.87 1.87 0 0 1 .92.19.61.61 0 0 1 .34.57V6l2.82-1.44a7.37 7.37 0 0 1 .8-.37 2 2 0 0 1 .67-.1 1.92 1.92 0 0 1 .79.14c.2.1.31.22.31.36s-.34.42-1 .71l-1.33.59 2.57 2c.19.15.33.26.41.33a.33.33 0 0 1 .13.22.51.51 0 0 1-.33.46 1.9 1.9 0 0 1-.86.17 1.64 1.64 0 0 1-.71-.12 4.74 4.74 0 0 1-.68-.44"/><path id="_Path_4" data-name="&amp;lt;Path&amp;gt;" class="cls-1" d="M192.13 9a2.44 2.44 0 0 1-1-.18c-.28-.12-.42-.28-.42-.5s.13-.34.4-.47a2.18 2.18 0 0 1 1-.2 2.35 2.35 0 0 1 1 .19c.27.13.41.29.41.47s-.14.38-.41.5a2.39 2.39 0 0 1-1 .18"/><path id="_Path_5" data-name="&amp;lt;Path&amp;gt;" class="cls-1" d="M204.63 7.52a.71.71 0 0 1-.28.49 2.8 2.8 0 0 1-.86.49 6.71 6.71 0 0 1-1.45.38 12.26 12.26 0 0 1-2 .14 8.24 8.24 0 0 1-3.64-.66 2 2 0 0 1-1.3-1.77 1.78 1.78 0 0 1 .6-1.33 4 4 0 0 1 1.73-.89 10.21 10.21 0 0 1 2.71-.31 10.72 10.72 0 0 1 1.79.14 7.33 7.33 0 0 1 1.38.36 3.2 3.2 0 0 1 .86.47.66.66 0 0 1 .3.46c0 .14-.11.27-.33.37a2 2 0 0 1-.81.15 1.51 1.51 0 0 1-.52-.08 2.1 2.1 0 0 1-.46-.25 3.5 3.5 0 0 0-1-.51 4 4 0 0 0-1.23-.17 3.39 3.39 0 0 0-1.8.42 1.3 1.3 0 0 0-.68 1.15 1.19 1.19 0 0 0 .18.63 1.44 1.44 0 0 0 .5.49 2.65 2.65 0 0 0 .8.31 4.6 4.6 0 0 0 1 .11 4.33 4.33 0 0 0 1.29-.17 2.68 2.68 0 0 0 1-.52 1.89 1.89 0 0 1 .49-.32 1.64 1.64 0 0 1 .65-.12 1.53 1.53 0 0 1 .76.17c.2.11.31.23.31.36"/><path id="_Compound_Path_15" data-name="&amp;lt;Compound Path&amp;gt;" class="cls-1" d="M215.46 6.56a1.66 1.66 0 0 1-.34 1 2.85 2.85 0 0 1-1 .79 6.18 6.18 0 0 1-1.58.51 11.21 11.21 0 0 1-2.07.18 10.66 10.66 0 0 1-2.05-.18 6.14 6.14 0 0 1-1.57-.51 2.93 2.93 0 0 1-1-.79 1.65 1.65 0 0 1 0-2 2.81 2.81 0 0 1 1-.79 6.22 6.22 0 0 1 1.58-.5 11.2 11.2 0 0 1 2.05-.18 10.93 10.93 0 0 1 2.07.18 6.32 6.32 0 0 1 1.59.51 2.83 2.83 0 0 1 1 .79 1.65 1.65 0 0 1 .34 1m-2.52 0a1.3 1.3 0 0 0-.68-1.16 3.41 3.41 0 0 0-1.83-.41 4.17 4.17 0 0 0-1.3.19 1.83 1.83 0 0 0-.86.55 1.28 1.28 0 0 0-.3.85 1.25 1.25 0 0 0 .3.83 1.88 1.88 0 0 0 .86.55 4.12 4.12 0 0 0 1.31.19 3.41 3.41 0 0 0 1.82-.42 1.29 1.29 0 0 0 .68-1.15"/><path id="_Path_6" data-name="&amp;lt;Path&amp;gt;" class="cls-1" d="M225 6.65v1.61a.62.62 0 0 1-.36.58 2 2 0 0 1-.95.19 1.9 1.9 0 0 1-.92-.19.62.62 0 0 1-.36-.58V6.32a3.18 3.18 0 0 0-.06-.72.69.69 0 0 0-.35-.41 1.88 1.88 0 0 0-.9-.17 2.27 2.27 0 0 0-1.62.41 1.64 1.64 0 0 0-.39 1.18v1.65a.63.63 0 0 1-.35.57 2.36 2.36 0 0 1-1.87 0 .62.62 0 0 1-.37-.57V4.78a.56.56 0 0 1 .33-.52 1.8 1.8 0 0 1 .86-.18 2 2 0 0 1 .86.17.51.51 0 0 1 .34.46v.11a5.21 5.21 0 0 1 1.4-.55 7 7 0 0 1 1.71-.18 6.3 6.3 0 0 1 1.62.18 2.94 2.94 0 0 1 1.12.55 5.19 5.19 0 0 1 1.37-.55 6.63 6.63 0 0 1 1.61-.18 7.09 7.09 0 0 1 1.78.2 2.45 2.45 0 0 1 1.11.56 1.46 1.46 0 0 1 .32 1v2.41a.62.62 0 0 1-.36.58 2 2 0 0 1-.95.19 2 2 0 0 1-.93-.19.62.62 0 0 1-.37-.57v-2a2.42 2.42 0 0 0-.07-.63.69.69 0 0 0-.37-.4A2.08 2.08 0 0 0 227 5a3.11 3.11 0 0 0-.94.14 1.79 1.79 0 0 0-.7.38 1.68 1.68 0 0 0-.36 1.13"/></g><g id="_Group_4" data-name="&amp;lt;Group&amp;gt;"><path id="_Path_7" data-name="&amp;lt;Path&amp;gt;" class="cls-1" d="M108.14 6.26z"/><path id="_Path_8" data-name="&amp;lt;Path&amp;gt;" class="cls-1" d="M108.26 6.65a2.25 2.25 0 0 1-.11-.33 2.51 2.51 0 0 0 .11.33z"/><path id="_Path_9" data-name="&amp;lt;Path&amp;gt;" class="cls-1" d="M109.09 7.78z"/><path id="_Path_10" data-name="&amp;lt;Path&amp;gt;" class="cls-1" d="M109 7.71v-.07z"/><path id="_Path_11" data-name="&amp;lt;Path&amp;gt;" class="cls-1" d="M108.5 7.09a3.51 3.51 0 0 0 .44.54 3.45 3.45 0 0 1-.44-.54z"/><path id="_Path_12" data-name="&amp;lt;Path&amp;gt;" class="cls-1" d="M117.86 1.59c.49 0 .84 0 1.25.05l.12-.36a15.61 15.61 0 0 0-2.63-.11l-.11-.17c.46 0 .81-.25.81-.49s-.46-.49-1-.49-1 .22-1 .49.35.44.81.49l.13.22a19.25 19.25 0 0 0-2.84.4l.22.33a23.87 23.87 0 0 1 2.54-.29c.69-.05 1.25-.07 1.7-.07z"/><path id="_Path_13" data-name="&amp;lt;Path&amp;gt;" class="cls-1" d="M109.08 3.4l.11-.07-.3-.11-.47-.17a5 5 0 0 0-1.36 1L107 4a1.55 1.55 0 0 0-.73-.14 1 1 0 0 1-.41-.07.24.24 0 0 0 .14-.19c0-.17-.29-.31-.65-.31s-.65.14-.65.31.29.31.65.31h.16a1.61 1.61 0 0 0 .78.16.91.91 0 0 1 .42.07.28.28 0 0 1 .16.2 1.78 1.78 0 0 0-.3 1.25h1a2.07 2.07 0 0 1 .36-1 5.31 5.31 0 0 1 1.15-1.19z"/><path id="_Path_14" data-name="&amp;lt;Path&amp;gt;" class="cls-1" d="M126.77 2c-.36 0-.65.14-.65.31a.15.15 0 0 0 0 .08c-.18.08-.33.2-.33.38a.21.21 0 0 1-.15.21 1.08 1.08 0 0 1-.29.07 8 8 0 0 0-1.7-.83l-.74.38a10 10 0 0 1 1.67.94 7.59 7.59 0 0 1 1.1.95l1-.23a7.49 7.49 0 0 0-1.09-1 1.47 1.47 0 0 0 .32-.09c.19-.08.29-.2.28-.36a.24.24 0 0 1 .14-.21 1.17 1.17 0 0 0 .4.07c.36 0 .65-.14.65-.31s-.25-.36-.61-.36z"/><path id="_Path_15" data-name="&amp;lt;Path&amp;gt;" class="cls-1" d="M124.2 6.33a40.92 40.92 0 0 1-6.57.95c-1.16.08-2.29.11-3.32.11-1.35 0-2.54 0-3.45-.1s-1.86-.14-2.36-.2a3.45 3.45 0 0 0 .44.54l.06.06.06.06a5.12 5.12 0 0 0 1 .73 8.15 8.15 0 0 0 2.83.86 22.4 22.4 0 0 0 3.19.2A27.2 27.2 0 0 0 121.7 9a10.44 10.44 0 0 0 3.15-1.25 3.32 3.32 0 0 0 1-1.08 1.43 1.43 0 0 0 .14-.86c-.37.19-.99.33-1.79.52z"/><path id="_Compound_Path_16" data-name="&amp;lt;Compound Path&amp;gt;" class="cls-1" d="M109.51 3.56a5.17 5.17 0 0 0-1.1 1.06 2.1 2.1 0 0 0-.33 1.16 2.12 2.12 0 0 0 .05.47v.06a2.25 2.25 0 0 0 .11.33 53 53 0 0 0 9.25.24 39.4 39.4 0 0 0 6.3-.91 20.07 20.07 0 0 0 2.05-.58 6.44 6.44 0 0 0-1.69-1.71 10.65 10.65 0 0 0-5.11-1.78c-.41 0-.74-.05-1.2-.05s-1 0-1.69.05a22 22 0 0 0-2.45.28 14 14 0 0 0-3.42 1 6.3 6.3 0 0 0-.77.38zm11.88-.31c.93 0 1.69.37 1.69.82s-.76.82-1.69.82-1.69-.37-1.69-.82.77-.82 1.7-.82zm-8 0c1.51 0 2.73.59 2.73 1.32s-1.22 1.32-2.73 1.32-2.73-.59-2.73-1.32 1.25-1.35 2.76-1.35z"/></g></g></g></g></svg>