<svg xmlns="http://www.w3.org/2000/svg" viewBox="0 0 241 247.65"><defs><style>.cls-1{isolation:isolate}.cls-2{opacity:.5;mix-blend-mode:multiply;fill:url(#Degradado_sin_nombre_2)}.cls-3{fill:#d3b920}.cls-4{fill:#fbed62}.cls-5{fill:#ead957}</style><linearGradient id="Degradado_sin_nombre_2" x1="193.19" y1="229.55" x2="46.52" y2="16.22" gradientUnits="userSpaceOnUse"><stop offset="0" stop-color="#fff" stop-opacity="0"/><stop offset="1"/></linearGradient></defs><title>Asset 3</title><g class="cls-1"><g id="Layer_2" data-name="Layer 2"><g id="Objects"><path class="cls-2" d="M236.9 178.52l-.11-.1-.11-.1-.11-.1-.11-.1-.11-.1-.11-.1-.11-.1-.11-.1-.11-.1-.11-.1-.11-.1-.11-.1-.11-.1-.11-.1-.11-.1-.11-.1-.11-.1-.11-.1-.11-.1-.11-.1-.11-.1-.11-.1-.11-.1-.11-.1-.11-.1-.11-.1-.11-.1-.11-.1-.11-.1-.11-.1-.11-.1-.11-.1-.11-.1-.11-.1-.11-.1-.11-.1-.11-.1-.11-.1-.11-.1-.11-.1-.11-.1-.11-.1-.11-.1-.11-.1-.11-.1-.11-.1-.11-.1-.11-.1-.11-.1-.11-.1-.11-.1-.11-.1-.11-.1-.11-.1-.11-.1-.11-.1-.11-.1-.11-.1-.11-.1-.11-.1-.11-.1-.11-.1-.11-.1-.11-.1-.11-.1-.11-.1-.11-.1-.11-.1-.11-.1-.11-.1-.11-.1-.11-.1-.11-.1-.11-.1-.11-.1-.11-.1-.11-.1-.11-.1-.11-.1-.11-.1-.11-.1-.11-.1-.11-.1-.11-.1-.11-.1-.11-.1-.11-.1-.11-.1-.11-.1-.11-.1-.11-.1-.11-.1-.11-.1-.11-.1-.11-.1-.11-.1-.11-.1-.11-.1-.11-.1-.11-.1-.11-.1-.11-.1-.11-.1-.11-.1-.11-.1-.11-.1-.11-.1-.11-.1-.11-.1-.11-.1-.11-.1-.11-.1-.11-.1-.11-.1-.11-.1-.11-.1-.11-.1-.11-.1-.11-.1-.11-.1-.11-.1-.11-.1-.11-.1-.11-.1-.11-.1-.11-.1-.11-.1-.11-.1-.11-.1-.11-.1-.11-.1-.11-.1-.11-.1-.11-.1-.11-.1-.11-.1-.11-.1-.11-.1-.11-.1-.11-.1-.11-.1-.11-.1-.11-.1-.11-.1-.11-.1-.11-.1-.11-.1-.11-.1-.11-.1-.11-.1-.11-.1-.11-.1-.11-.1-.11-.1-.11-.1-.11-.1-.11-.1-.11-.1-.11-.1-.11-.1-.11-.1-.11-.1-.11-.1-.11-.1-.11-.1-.11-.1-.11-.1-.11-.1-.11-.1-.11-.1-.11-.1-.11-.1-.11-.1-.11-.1-.11-.1-.11-.1-.11-.1-.11-.1-.11-.1-.11-.1-.11-.1-.11-.1-.11-.1-.11-.1-.11-.1-.11-.1-.11-.1-.11-.1-.11-.1-.11-.1-.11-.1-.11-.1-.11-.1-.11-.1-.11-.1-.11-.1-.11-.1-.11-.1-.11-.1-.11-.1-.11-.1-.11-.1-.11-.1-.11-.1-.11-.1-.11-.1-.11-.1-.11-.1-.11-.1-.11-.1-.11-.1-.11-.1-.11-.1-.11-.1-.11-.1-.11-.1-.11-.1-.11-.1-.11-.1-.11-.1-.11-.1-.11-.1-.11-.1-.11-.1-.11-.1-.11-.1-.11-.1-.11-.1-.11-.1-.11-.1-.11-.1-.11-.1-.11-.1-.11-.1-.11-.1-.11-.1-.11-.1-.11-.1-.11-.1-.11-.1-.11-.1-.11-.1-.11-.1-.11-.1-.11-.1-.11-.1-.11-.1-.11-.1-.11-.1-.11-.1-.11-.1-.11-.1-.11-.1-.11-.1-.11-.1-.11-.1-.11-.1-.11-.1-.11-.1-.11-.1-.11-.1-.11-.1-.11-.1a76.35 76.35 0 0 0 1.2-13.36c0-2.32-.12-4.62-.32-6.89L241 111.36h-.21l.11-.08h-.21l.11-.08h-.21l.11-.08h-.21l.11-.08h-.21l.11-.08h-.21l.11-.08h-.21l.11-.08h-.21l.11-.08h-.21l.11-.08h-.21l.11-.08h-.21l.11-.08h-.21l.11-.08h-.21l.11-.08h-.21l.11-.08h-.21l.11-.08h-.21l.11-.08h-.21l.11-.08h-.21l.11-.08h-.21l.11-.08h-.21l.11-.08h-.21l.11-.08h-.21l.11-.08h-.21l.11-.08h-.21l.11-.08h-.21l.11-.08h-.21l.11-.08h-.21l.11-.08h-.21l.11-.08h-.21l.11-.08h-.21l.11-.08h-.21l.11-.08h-.21l.11-.08h-.21l.11-.08h-.21l.11-.08h-.21l.11-.08h-.21l.11-.08h-.21l.11-.08h-.21l.11-.08h-.21l.11-.08h-.21l.11-.08h-.21l.11-.08h-.21l.11-.08h-.21l.11-.08h-.21l.11-.08h-.21l.11-.08h-.21l.11-.08h-.21l.11-.08h-.21l.11-.08h-.21l.11-.08h-.21l.11-.08h-.21l.11-.08h-.21l.11-.08h-.21l.11-.08h-.21l.11-.08h-.21l.11-.08h-.21l.11-.08h-.21l.11-.08h-.21l.11-.08h-.21l.11-.08h-.21l.11-.08h-.21l.11-.08h-.21l.11-.08h-.21l.11-.08h-.21l.11-.08h-.21l.11-.08h-.21l.11-.08h-.21l.11-.08h-.21l.11-.08h-.21l.11-.08h-.21l.11-.08h-.21l.11-.08h-.21l.11-.08h-.21l.11-.08h-.21l.11-.08h-.21l.11-.08h-.21l.11-.08h-.21l.11-.08h-.21l.11-.08h-.21l.11-.08h-.21l.11-.08h-.21l.11-.08h-.21l.11-.08h-.21l.11-.08h-.21l.11-.08h-.21l.11-.08h-.21l.11-.08h-.21l.11-.08h-.21l.11-.08h-.21l.11-.08h-.21l.11-.08h-.21l.11-.08h-.21l.11-.08h-.21l.11-.08h-.21l.11-.08h-.21l.11-.08h-.21l.11-.08h-.21l.11-.08h-.21l.11-.08h-.21l.11-.08h-.21l.11-.08h-.21l.11-.08h-.21l.11-.08h-.21l.11-.08h-.21l.11-.08h-.21l.11-.08h-.21l.11-.08h-.21l.11-.08h-.21l.11-.08h-.21l.11-.08h-.21l.11-.08h-.21l.11-.08h-.21l.11-.08h-.21l.11-.08h-.21l.11-.08h-.21l.11-.08h-.21l.11-.08h-.21l.11-.08h-.21l.11-.08h-.21l.11-.08h-.21l.11-.08h-.21l.11-.08h-.21l.11-.08h-.21l.11-.08h-.21l.11-.08h-.21l.11-.08h-.21l.11-.08h-.21l.11-.08h-.21l.11-.08h-.21l.11-.08h-.21l.11-.08h-.21l.11-.08h-.21l.11-.08h-.21l.11-.08h-.21l.11-.08h-.21l.11-.08h-.21l.11-.08h-.21l.11-.08h-.21l.11-.08h-.21l.11-.08h-.21l.11-.08h-.21l.11-.08h-.21l.11-.08h-.21l.11-.08h-.21l.11-.08h-.21l.11-.08h-.21l.11-.08h-.21l.11-.08h-.21l.11-.08h-.21l.11-.08h-.21l.11-.08h-.21l.11-.08h-.21l.11-.08h-.21l.11-.08h-.21l.11-.08h-.21l.11-.08h-.21l.11-.08h-.21l.11-.08h-.21l.11-.08h-.21l.11-.08h-.21l.11-.08h-.21l.11-.08h-.21l.11-.08h-.21l.11-.08h-.21l.11-.08h-.21l.11-.08h-.21l.11-.08h-.21l.11-.08h-.21l.11-.08h-.21l.11-.08h-.21l.11-.08h-.21l.11-.08h-.21l.11-.08h-.21l.11-.08h-.21l.11-.08h-.21l.11-.08h-.21l.11-.08h-.21l.11-.08h-.21l.11-.08h-.21l.11-.08h-.21l.11-.08h-.21l.11-.08h-.21l.11-.08h-.21l.11-.08h-.21l.11-.08h-.21l.11-.08h-.21l.11-.08h-.21l.11-.08h-.21l.11-.08h-.21l.11-.08h-.21l.11-.08h-.21l.11-.08h-.21l.11-.08h-.21l.11-.08h-.21l.11-.08h-.21l.11-.08h-.21l.11-.08h-.21l.11-.08h-.21l.11-.08h-.21l.11-.08h-.21l.11-.08h-.21l.11-.08h-.21l.11-.08h-.21l.11-.08h-.21l.11-.08h-.21l.11-.08h-.21l.11-.08h-.21l.11-.08h-.21l.11-.08h-.21l.11-.08h-.21l.11-.08h-.21l.11-.08h-.21l.11-.08h-.21l.11-.08h-.21l.11-.08h-.21l.11-.08h-.21l.11-.08h-.21l.11-.08h-.21l.11-.08h-.21l.11-.08h-.21l.11-.08h-.21l.11-.08h-.21l.11-.08h-.21l.11-.08h-.21l.11-.08h-.21l.11-.08h-.21l.11-.08h-.21l.11-.08h-.21l.11-.08h-.21l.11-.08h-.21l.11-.08h-.21l.11-.08h-.21l.11-.08h-.21l.11-.08h-.21l.11-.08h-.21l.11-.08h-.21l.11-.08h-.21l.11-.08h-.21l.11-.08h-.21l.11-.08h-.21l.11-.08h-.21l.11-.08h-.21l.11-.08h-.21l.11-.08h-.21l.11-.08h-.21l.11-.08h-.21l.11-.08h-.21l.11-.08h-.21l.11-.08h-.21l.11-.08h-.21l.11-.08h-.21l.11-.08h-.21l.11-.08h-.21l.11-.08h-.21l.11-.08h-.21l.11-.08h-.21l.11-.08h-.21l.11-.08h-.21l.11-.08h-.21l.11-.08h-.21l.11-.08h-.21l.11-.08h-.21l.11-.08h-.21l.11-.08h-.21l.11-.08h-.21l.11-.08h-.21l.11-.08h-.21l.11-.08h-.21l.11-.08h-.21l.11-.08h-.21l.11-.08h-.21l.11-.08h-.21l.11-.08h-.21l.11-.08h-.21l.11-.08h-.21l.11-.08h-.21l.11-.08h-.21l.11-.08h-.21l.11-.08h-.21l.11-.08h-.21l.11-.08h-.21l.11-.08h-.21l.11-.08h-.21l.11-.08h-.21l.11-.08h-.21l.11-.08h-.21l.11-.08h-.21l.11-.08h-.21l.11-.08h-.21l.11-.08h-.21l.11-.08h-.21l.11-.08h-.21l.11-.08h-.21l.11-.08h-.21l.11-.08h-.21l.11-.08h-.21l.11-.08h-.21l.11-.08h-.21l.11-.08h-.21l.11-.08h-.21l.11-.08-15.08-1.49 8.79-25.28-.17.1.07-.2-.17.1.07-.2-.17.1.07-.2-.17.1.07-.2-.17.1.07-.2-.17.1.07-.2-.17.1.07-.2-.17.1.07-.2-.17.1.07-.2-.17.1.07-.2-.17.1.07-.2-.17.1.07-.2-.17.1.07-.2-.17.1.07-.2-.17.1.07-.2-.17.1.07-.2-.17.1.07-.2-.17.1.07-.2-.17.1.07-.2-.17.1.07-.2-.17.1.07-.2-.17.1.07-.2-.17.1.07-.2-.17.1.07-.2-.17.1.07-.2-.17.1.07-.2-.17.1.07-.2-.17.1.07-.2-.17.1.07-.2-.17.1.07-.2-.17.1.07-.2-.17.1.07-.2-.17.1.07-.2-.17.1.07-.2-.17.1.07-.2-.17.1.07-.2-.17.1.07-.2-.17.1.07-.2-.17.1.07-.2-.17.1.07-.2-.17.1.07-.2-.17.1.07-.2-.17.1.07-.2-.17.1.07-.2-.17.1.07-.2-.17.1.07-.2-.17.1.07-.2-.17.1.07-.2-.17.1.07-.2-.17.1.07-.2-.17.1.07-.2-.17.1.07-.2-.17.1.07-.2-.17.1.07-.2-.17.1.07-.2-.17.1.07-.2-.17.1.07-.2-.17.1.07-.2-.17.1.07-.2-.17.1.07-.2-.17.1.07-.2-.17.1.07-.2-.17.1.07-.2-.17.1.07-.2-.17.1.07-.2-.17.1.07-.2-.17.1.07-.2-.17.1.07-.2-.17.1.07-.2-.17.1.07-.2-.17.1.07-.2-.17.1.07-.2-.17.1.07-.2-.17.1.07-.2-.17.1.07-.2-.17.1.07-.2-.17.1.07-.2-.17.1.07-.2-.17.1.07-.2-.17.1.07-.2-.17.1.07-.2-.17.1.07-.2-.17.1.07-.2-.17.1.07-.2-.17.1.07-.2-.17.1.07-.2-.17.1.07-.2-.17.1.07-.2-.17.1.07-.2-.17.1.07-.2-.17.1.07-.2-.17.1.07-.2-.17.1.07-.2-.17.1.07-.2-.17.1.07-.2-.17.1.07-.2-.17.1.07-.2-.17.1.07-.2-.17.1.07-.2-.17.1.07-.2-.17.1.07-.2-.17.1.07-.2-.17.1.07-.2-.17.1.07-.2-.17.1.07-.2-.17.1.07-.2-.17.1.07-.2-.17.1.07-.2-.17.1.07-.2-.17.1.07-.2-.17.1.07-.2-.17.1.07-.2-.17.1.07-.2-.17.1.07-.2-.17.1.07-.2-.17.1.07-.2-.17.1.07-.2-.17.1.07-.2-.17.1.07-.2-.17.1.07-.2-.17.1.07-.2-.17.1.07-.2-.17.1.07-.2-.17.1.07-.2-.17.1.07-.2-.17.1.07-.2-.17.1.07-.2-.17.1.07-.2-.17.1.07-.2-.17.1.07-.2-.17.1.07-.2-.17.1.07-.2-.17.1.07-.2-.17.1.07-.2-.17.1.07-.2-.17.1.07-.2-.17.1.07-.2-.17.1.07-.2-.17.1.07-.2-.17.1.07-.2-.17.1.07-.2-.17.1.07-.2-.17.1.07-.2-.17.1.07-.2-.17.1.07-.2-.17.1.07-.2-.17.1.07-.2-.17.1.07-.2-.17.1.07-.2-.17.1.07-.2-.17.1.07-.2-.17.1.07-.2-.17.1.07-.2-.17.1.07-.2-.17.1.07-.2-.17.1.07-.2-.17.1.07-.2-.17.1.07-.2-.17.1.07-.2-.17.1.07-.2-.17.1.07-.2-.17.1.07-.2-.17.1.07-.2-.17.1.07-.2-.17.1.07-.2-.17.1.07-.2-.17.1.07-.2-.17.1.07-.2-.17.1.07-.2-.17.1.07-.2-.17.1.07-.2-.17.1.07-.2-.17.1.07-.2-.17.1.07-.2-.17.1.07-.2-.17.1.07-.2-.17.1.07-.2-.17.1.07-.2-.17.1.07-.2-.17.1.07-.2-.17.1.07-.2-.17.1.07-.2-.17.1.07-.2-.17.1.07-.2-.17.1.07-.2-.17.1.07-.2-.17.1.07-.2-.17.1.07-.2-.17.1.07-.2-.17.1.07-.2-.17.1.07-.2-.17.1.07-.2-.17.1.07-.2-.17.1.07-.2-.17.1.07-.2-.17.1.07-.2-.17.1.07-.2-.17.1.07-.2-.17.1.07-.2-.17.1.07-.2-.17.1.07-.2-.17.1.07-.2-.17.1.07-.2-.17.1.07-.2-.17.1.07-.2-.17.1.07-.2-.17.1.07-.2-.17.1.07-.2-.17.1.07-.2-.17.1.07-.2-.17.1.07-.2-.17.1.07-.2-.17.1.07-.2-.17.1.07-.2-.17.1.07-.2-.17.1.07-.2-.17.1.07-.2-.17.1.07-.2-.17.1.07-.2-.17.1.07-.2-.17.1.07-.2-.17.1.07-.2-.17.1.07-.2-.17.1.07-.2-.17.1.07-.2-.17.1.07-.2-.17.1.07-.2-.17.1.07-.2-.17.1.07-.2-.17.1.07-.2-.17.1.07-.2-.17.1.07-.2-.17.1.07-.2-.17.1.07-.2-.17.1.07-.2-.17.1.07-.2-.17.1.07-.2-.17.1.07-.2-.17.1.07-.2-.17.1.07-.2-.17.1.07-.2-.17.1.07-.2-.17.1.07-.2-.17.1.07-.2-.17.1.07-.2-.17.1.07-.2-.17.1.07-.2-.17.1.07-.2-.17.1.07-.2-.17.1.07-.2-.17.1.07-.2-.17.1.07-.2-.17.1.07-.2-.17.1.07-.2-.17.1.07-.2-.17.1.07-.2-.17.1.07-.2-.17.1.07-.2-.17.1.07-.2-.17.1.07-.2-.17.1.07-.2-.17.1.07-.2-.17.1.07-.2-.17.1.07-.2-.17.1.07-.2-.17.1.07-.2-.17.1.07-.2-.17.1.07-.2-.17.1.07-.2-.17.1.07-.2-.17.1.07-.2-.17.1.07-.2-.17.1.07-.2-.17.1.07-.2-.17.1.07-.2-.17.1.07-.2-.17.1.07-.2-.17.1.07-.2-.17.1.07-.2-.17.1.07-.2-.17.1.07-.2-.17.1.07-.2-.17.1.07-.2-.17.1.07-.2-.17.1.07-.2-.17.1.07-.2-.17.1.07-.2-.17.1.07-.2-.17.1.07-.2-.17.1.07-.2-.17.1.07-.2-.17.1.07-.2-.17.1.07-.2-.17.1.07-.2-.17.1.07-.2-.17.1.07-.2-.17.1.07-.2-.17.1.07-.2-.17.1.07-.2-.17.1.07-.2-29.19 11.11L142 30v.09l-.06-.19v.09l-.06-.19v.09l-.06-.19v.09l-.06-.19v.09l-.06-.19v.09l-.06-.19v.09l-.06-.19v.09l-.06-.19v.09l-.06-.19v.09L141 29v.09l-.06-.19v.09l-.06-.19v.09l-.06-.19v.09l-.06-.19v.09l-.06-.19v.09l-.06-.19v.09l-.06-.19v.09l-.06-.19v.09l-.06-.19v.09L140 28v.09l-.06-.19v.09l-.06-.19v.09l-.06-.19v.09l-.06-.19v.09l-.06-.19v.09l-.06-.19v.09l-.06-.19v.09l-.06-.19v.09l-.06-.19v.09L139 27v.09l-.06-.19v.09l-.06-.19v.09l-.06-.19v.09l-.06-.19v.09l-.06-.19v.09l-.06-.19v.09l-.06-.19v.09l-.06-.19v.09l-.06-.19v.09L138 26v.09l-.06-.19v.09l-.06-.19v.09l-.06-.19v.09l-.06-.19v.09l-.06-.19v.09l-.06-.19v.09l-.06-.19v.09l-.06-.19v.09l-.06-.19v.09L137 25v.09l-.06-.19v.09l-.06-.19v.09l-.06-.19v.09l-.06-.19v.09l-.06-.19v.09l-.06-.19v.09l-.06-.19v.09l-.06-.19v.09l-.06-.19v.09L136 24v.09l-.06-.19v.09l-.06-.19v.09l-.06-.19v.09l-.06-.19v.09l-.06-.19v.09l-.06-.19v.09l-.06-.19v.09l-.06-.19v.09l-.06-.19v.09L135 23v.09l-.06-.19v.09l-.06-.19v.09l-.06-.19v.09l-.06-.19v.09l-.06-.19v.09l-.06-.19v.09l-.06-.19v.09l-.06-.19v.09l-.06-.19v.09L134 22v.09l-.06-.19v.09l-.06-.19v.09l-.06-.19v.09l-.06-.19v.09l-.06-.19v.09l-.06-.19v.09l-.06-.19v.09l-.06-.19v.09l-.06-.19v.09L133 21v.09l-.06-.19v.09l-.06-.19v.09l-.06-.19v.09l-.06-.19v.09l-.06-.19v.09l-.06-.19v.09l-.06-.19v.09l-.06-.19v.09l-.06-.19v.09L132 20v.09l-.06-.19v.09l-.06-.19v.09l-.06-.19v.09l-.06-.19v.09l-.06-.19v.09l-.06-.19v.09l-.06-.19v.09l-.06-.19v.09l-.06-.19v.09L131 19v.09l-.06-.19v.09l-.06-.19v.09l-.06-.19v.09l-.06-.19v.09l-.06-.19v.09l-.06-.19v.09l-.06-.19v.09l-.06-.19v.09l-.06-.19v.09L130 18v.09l-.06-.19v.09l-.06-.19v.09l-.06-.19v.09l-.06-.19v.09l-.06-.19v.09l-.06-.19v.09l-.06-.19v.09l-.06-.19v.09l-.06-.19v.09L129 17v.09l-.06-.19v.09l-.06-.19v.09l-.06-.19v.09l-.06-.19v.09l-.06-.19v.09l-.06-.19v.09l-.06-.19v.09l-.06-.19v.09l-.06-.19v.09L128 16v.09l-.06-.19v.09l-.06-.19v.09l-.06-.19v.09l-.06-.19v.09l-.06-.19v.09l-.06-.19v.09l-.06-.19v.09l-.06-.19v.09l-.06-.19v.09L127 15v.09l-.06-.19v.09l-.06-.19v.09l-.06-.19v.09l-.06-.19v.09l-.06-.19v.09l-.06-.19v.09l-.06-.19v.09l-.06-.19v.09l-.06-.19v.09L126 14v.09l-.06-.19v.09l-.06-.19v.09l-.06-.19v.09l-.06-.19v.09l-.06-.19v.09l-.06-.19v.09l-.06-.19v.09l-.06-.19v.09l-.06-.19v.09L125 13v.09l-.06-.19v.09l-.06-.19v.09l-.06-.19v.09l-.06-.19v.09l-.06-.19v.09l-.06-.19v.09l-.06-.19v.09l-.06-.19v.09l-.06-.19v.09L124 12v.09l-.06-.19v.09l-.06-.19v.09l-.06-.19v.09l-.06-.19v.09l-.06-.19v.09l-.06-.19v.09l-.06-.19v.09l-.06-.19v.09l-.06-.19v.09L123 11v.09l-.06-.19v.09l-.06-.19v.09l-.06-.19v.09l-.06-.19v.09l-.06-.19v.09l-.06-.19v.09l-.06-.19v.09l-.06-.19v.09l-.06-.19v.09L122 10v.09l-.06-.19v.09l-.06-.19v.09l-.06-.19v.09l-.06-.19v.09l-.06-.19v.09l-.06-.19v.09l-.06-.19v.09l-.06-.19v.09l-.06-.19v.09L121 9v.09l-.06-.19v.09l-.06-.19v.09l-.06-.19v.09l-.06-.19v.09l-.06-.19v.09l-.06-.19v.09l-.06-.19v.09l-.06-.19v.09l-.06-.19v.09L120 8v.09l-.06-.19v.09l-.06-.19v.09l-.06-.19v.09l-.06-.19v.09l-.06-.19v.09l-.06-.19v.09l-.06-.19v.09l-.06-.19v.09l-.06-.19v.09L119 7v.09l-.06-.19v.09l-.06-.19v.09l-.06-.19v.09l-.06-.19v.09l-.06-.19v.09l-.06-.19v.09l-.06-.19v.09l-.06-.19v.09l-.06-.19v.09L118 6v.09l-.06-.19v.09l-.06-.19v.09l-.06-.19v.09l-.06-.19v.09l-.06-.19v.09l-.06-.19v.09l-.06-.19v.09l-.06-.19v.09l-.06-.19v.09L117 5v.09l-.06-.19v.09l-.06-.19v.09l-.06-.19v.09l-.06-.19v.09l-.06-.19v.09l-.06-.19v.09l-.06-.19v.09l-.06-.19v.09l-.06-.19v.09L116 4v.09l-.06-.19v.09l-.06-.19v.09l-.06-.19v.09l-.06-.19v.09l-.06-.19v.09l-.06-.19v.09l-.06-.19v.09l-.06-.19v.09l-.06-.19v.09L115 3v.09l-.06-.19v.09l-.06-.19v.09l-.06-.19v.09l-.06-.19v.09l-.06-.19v.09l-.06-.19v.09l-.06-.19v.09l-.06-.19v.09l-.06-.19v.09L114 2v.09l-.06-.19v.09l-.06-.19v.09l-.06-.19v.09l-.06-.19v.09l-.06-.19v.09l-.06-.19v.09l-.06-.19v.09l-.06-.19v.09l-.06-.19v.09L113 1v.09l-.11-.19v.09l-.1-.19v.09l-.1-.19v.09l-.1-.19v.09l-.1-.19v.09l-.1-.19v.09l-.1-.19v.09l-.1-.19v.09l-.1-.19v.09L112 0 97.55 33a75.75 75.75 0 0 0-22.08 5.74L46.78 17l7.71 35.18A76.59 76.59 0 0 0 40 69.77L4 69l.11.1.11.1.11.1.11.1.11.1.11.1.11.1.11.1.11.1.01.1.11.1.11.1.11.1.11.1.11.1.11.1.11.1.11.1.11.1.01.1.11.1.11.1.11.1.11.1.11.1.11.1.11.1.11.1.11.1.01.1.11.1.11.1.11.1.11.1.11.1.11.1.11.1.11.1.11.1.01.1.11.1.11.1.11.1.11.1.11.1.11.1.11.1.11.1.11.1.01.1.11.1.11.1.11.1.11.1.11.1.11.1.11.1.11.1.11.1.01.1.11.1.11.1.11.1.11.1.11.1.11.1.11.1.11.1.11.1.01.1.11.1.11.1.11.1.11.1.11.1.11.1.11.1.11.1.11.1.01.1.11.1.11.1.11.1.11.1.11.1.11.1.11.1.11.1.11.1.01.1.11.1.11.1.11.1.11.1.11.1.11.1.11.1.11.1.11.1.01.1.11.1.11.1.11.1.11.1.11.1.11.1.11.1.11.1.11.1.01.1.11.1.11.1.11.1.11.1.11.1.11.1.11.1.11.1.11.1.01.1.11.1.11.1.11.1.11.1.11.1.11.1.11.1.11.1.11.1.01.1.11.1.11.1.11.1.11.1.11.1.11.1.11.1.11.1.11.1.01.1.11.1.11.1.11.1.11.1.11.1.11.1.11.1.11.1.11.1.01.1.11.1.11.1.11.1.11.1.11.1.11.1.11.1.11.1.11.1.01.1.11.1.11.1.11.1.11.1.11.1.11.1.11.1.11.1.11.1.01.1.11.1.11.1.11.1.11.1.11.1.11.1.11.1.11.1.11.1.01.1.11.1.11.1.11.1.11.1.11.1.11.1.11.1.11.1.11.1.01.1.11.1.11.1.11.1.11.1.11.1.11.1.11.1.11.1.11.1.01.1.11.1.11.1.11.1.11.1.11.1.11.1.11.1.11.1.11.1.01.1.11.1.11.1.11.1.11.1.11.1.11.1.11.1.11.1.11.1.01.1.11.1.11.1.11.1.11.1.11.1.11.1.11.1.11.1.11.1.01.1.11.1.11.1.11.1.11.1.11.1.11.1.11.1.11.1.11.1.01.1.11.1.11.1.11.1.11.1.11.1.11.1.11.1.11.1.11.1.01.1.11.1.11.1.11.1.11.1.11.1.11.1.11.1.11.1.11.1.01.1.11.1.11.1.11.1.11.1a76.35 76.35 0 0 0-1.2 13.36c0 2.32.12 4.62.32 6.89L0 136.29h.21l-.11.08h.21l-.11.08h.21l-.11.08h.21l-.11.08h.21l-.11.08h.21l-.11.08h.21L.7 137h.21l-.11.08h.21l-.11.08h.21l-.11.08h.21l-.11.08h.21l-.11.08h.21l-.11.08h.21l-.11.08h.21l-.11.08h.21l-.11.08h.21l-.11.28h.21l-.11.08h.21l-.11.08h.21l-.11.08h.21l-.11.08h.21l-.11.08h.21l-.11.08h.21l-.11.08h.21l-.11.08h.21l-.11.08h.21l-.11.28h.21l-.11.08h.21l-.11.08h.21l-.11.08h.21l-.11.08h.21l-.11.08h.21l-.11.08h.21l-.11.08h.21l-.11.08h.21l-.11.08h.21l-.11.28h.21l-.11.08h.21l-.11.08h.21l-.11.08h.21l-.11.08h.21l-.11.08h.21l-.11.08h.21l-.11.08h.21l-.11.08h.21l-.11.08h.21l-.11.28h.21l-.11.08h.21l-.11.08h.21l-.11.08h.21l-.11.08h.21l-.11.08h.21l-.11.08h.21l-.11.08h.21l-.11.08h.21l-.11.08h.21l-.11.28h.21l-.11.08h.21l-.11.08h.21l-.11.08h.21l-.11.08h.21l-.11.08h.21l-.11.08h.21l-.11.08h.21l-.11.08h.21l-.11.08h.21l-.11.28h.21l-.11.08h.21l-.11.08h.21l-.11.08h.21l-.11.08h.21l-.11.08h.21l-.11.08h.21l-.11.08h.21l-.11.08h.21l-.11.08h.21l-.11.28h.21l-.11.08h.21l-.11.08h.21l-.11.08h.21l-.11.08h.21l-.11.08h.21l-.11.08h.21l-.11.08h.21l-.11.08h.21l-.11.08h.21l-.11.28h.21l-.11.08h.21l-.11.08h.21l-.11.08h.21l-.11.08h.21l-.11.08h.21l-.11.08h.21l-.11.08h.21l-.11.08h.21l-.11.08h.21l-.11.28h.21l-.11.08h.21l-.11.08h.21l-.11.08h.21l-.11.08h.21l-.11.08h.21l-.11.08h.21l-.11.08h.21l-.11.08h.21l-.11.08h.21l-.11.08h.21l-.11.08h.21l-.11.08h.21l-.11.08h.21l-.11.08h.21l-.11.08h.21l-.11.08h.21l-.11.08h.21l-.11.08h.21l-.11.08h.21l-.11.08h.21l-.11.08h.21l-.11.08h.21l-.11.08h.21l-.11.08h.21l-.11.08h.21l-.11.08h.21l-.11.08h.21l-.11.08h.21l-.11.08h.21l-.11.08h.21l-.11.08h.21l-.11.08h.21l-.11.08h.21l-.11.08h.21l-.11.08h.21l-.11.08h.21l-.11.08h.21l-.11.08h.21l-.11.08h.21l-.11.08h.21l-.11.08h.21l-.11.08h.21l-.11.08h.21l-.11.08h.21l-.11.08h.21l-.11.08h.21l-.11.08h.21l-.11.08h.21l-.11.08h.21l-.11.08h.21l-.11.08h.21l-.11.08h.21l-.11.08h.21l-.11.08h.21l-.11.08h.21l-.11.08h.21l-.11.08h.21l-.11.08h.21l-.11.08h.21l-.11.08h.21l-.11.08h.21l-.11.08h.21l-.11.08h.21l-.11.08h.21l-.11.08h.21l-.11.08h.21l-.11.08h.21l-.11.08h.21l-.11.08h.21l-.11.08h.21l-.11.08h.21l-.11.08h.21l-.11.08h.21l-.11.08h.21l-.11.08h.21l-.11.08h.21l-.11.08h.21l-.11.08h.21l-.11.08h.21l-.11.08h.21l-.11.08h.21l-.11.08h.21l-.11.08h.21l-.11.08h.21l-.11.08h.21l-.11.08h.21l-.11.08h.21l-.11.08h.21l-.11.08h.21l-.11.08h.21l-.11.08h.21l-.11.08h.21l-.11.08h.21l-.11.08h.21l-.11.08h.21l-.11.08h.21l-.11.08h.21l-.11.08h.21l-.11.08h.21l-.11.08h.21l-.11.08h.21l-.11.08h.21l-.11.08h.21l-.11.08h.21l-.11.08h.21l-.11.08h.21l-.11.08h.21l-.11.08h.21l-.11.08h.21l-.11.08h.21l-.11.08h.21l-.11.08h.21l-.11.08h.21l-.11.08h.21l-.11.08h.21l-.11.08h.21l-.11.08h.21l-.11.08h.21l-.11.08h.21l-.11.08h.21l-.11.08h.21l-.11.08h.21l-.11.08h.21l-.11.08h.21l-.11.08h.21l-.11.08h.21l-.11.08h.21l-.11.08h.21l-.11.08h.21l-.11.08h.21l-.11.08h.21l-.11.08h.21l-.11.08h.21l-.11.08h.21l-.11.08h.21l-.11.08h.21l-.11.08h.21l-.11.08h.21l-.11.08h.21l-.11.08h.21l-.11.08h.21l-.11.08h.21l-.11.08h.21l-.11.08h.21l-.11.08h.21l-.11.08h.21l-.11.08h.21l-.11.08h.21l-.11.08h.21l-.11.08h.21l-.11.08h.21l-.11.08h.21l-.11.08h.21l-.11.08h.21l-.11.08h.21l-.11.08h.21l-.11.08h.21l-.11.08h.21l-.11.08h.21l-.11.08h.21l-.11.08h.21l-.11.08h.21l-.11.08h.21l-.11.08h.21l-.11.08h.21l-.11.08h.21l-.11.08h.21l-.11.08h.21l-.11.08h.21l-.11.08h.21l-.11.08h.21l-.11.08h.21l-.11.08h.21l-.11.08h.21l-.11.08h.21l-.11.08h.21l-.11.08h.21l-.11.08h.21l-.11.08h.21l-.11.08h.21l-.11.08h.21l-.11.08h.21l-.11.08h.21l-.11.08h.21l-.11.08h.21l-.11.08h.21l-.11.08h.21l-.11.08h.21l-.11.08h.21l-.11.08h.21l-.11.08h.21l-.11.08h.21l-.11.08h.21l-.11.08h.21l-.11.08h.21l-.11.08h.21l-.11.08h.21l-.11.08h.21l-.11.08h.21l-.11.08h.21l-.11.08h.21l-.11.08h.21l-.11.08 15.08 1.49-8.79 25.28.17-.1-.07.2.17-.1-.07.2.17-.1-.07.2.17-.1-.07.2.17-.1-.07.2.17-.1-.07.2.17-.1-.07.2.17-.1-.07.2.17-.1-.07.2.17-.1-.07.2.17-.1-.07.2.17-.1-.07.2.17-.1-.07.2.17-.1-.07.2.17-.1-.07.2.17-.1-.07.2.17-.1-.07.2.17-.1-.07.2.17-.1-.07.2.17-.1-.07.2.17-.1-.07.2.17-.1-.07.2.17-.1-.07.2.17-.1-.07.2.17-.1-.07.2.17-.1-.07.2.17-.1-.07.2.17-.1-.07.2.17-.1-.07.2.17-.1-.07.2.17-.1-.07.2.17-.1-.07.2.17-.1-.07.2.17-.1-.07.2.17-.1-.07.2.17-.1-.07.2.17-.1-.07.2.17-.1-.07.2.17-.1-.07.2.17-.1-.07.2.17-.1-.07.2.17-.1-.07.2.17-.1-.07.2.17-.1-.07.2.17-.1-.07.2.17-.1-.07.2.17-.1-.07.2.17-.1-.07.2.17-.1-.07.2.17-.1-.07.2.17-.1-.07.2.17-.1-.07.2.17-.1-.07.2.17-.1-.07.2.17-.1-.07.2.17-.1-.07.2.17-.1-.07.2.17-.1-.07.2.17-.1-.07.2.17-.1-.07.2.17-.1-.07.2.17-.1-.07.2.17-.1-.07.2.17-.1-.07.2.17-.1-.07.2.17-.1-.07.2.17-.1-.07.2.17-.1-.07.2.17-.1-.07.2.17-.1-.07.2.17-.1-.07.2.17-.1-.07.2.17-.1-.07.2.17-.1-.07.2.17-.1-.07.2.17-.1-.07.2.17-.1-.07.2.17-.1-.07.2.17-.1-.07.2.17-.1-.07.2.17-.1-.07.2.17-.1-.07.2.17-.1-.07.2.17-.1-.07.2.17-.1-.07.2.17-.1-.07.2.17-.1-.07.2.17-.1-.07.2.17-.1-.07.2.17-.1-.07.2.17-.1-.07.2.17-.1-.07.2.17-.1-.07.2.17-.1-.07.2.17-.1-.07.2.17-.1-.07.2.17-.1-.07.2.17-.1-.07.2.17-.1-.07.2.17-.1-.07.2.17-.1-.07.2.17-.1-.07.2.17-.1-.07.2.17-.1-.07.2.17-.1-.07.2.17-.1-.07.2.17-.1-.07.2.17-.1-.07.2.17-.1-.07.2.17-.1-.07.2.17-.1-.07.2.17-.1-.07.2.17-.1-.07.2.17-.1-.07.2.17-.1-.07.2.17-.1-.07.2.17-.1-.07.2.17-.1-.07.2.17-.1-.07.2.17-.1-.07.2.17-.1-.07.2.17-.1-.07.2.17-.1-.07.2.17-.1-.07.2.17-.1-.07.2.17-.1-.07.2.17-.1-.07.2.17-.1-.07.2.17-.1-.07.2.17-.1-.07.2.17-.1-.07.2.17-.1-.07.2.17-.1-.07.2.17-.1-.07.2.17-.1-.07.2.17-.1-.07.2.17-.1-.07.2.17-.1-.07.2.17-.1-.07.2.17-.1-.07.2.17-.1-.07.2.17-.1-.07.2.17-.1-.07.2.17-.1-.07.2.17-.1-.07.2.17-.1-.07.2.17-.1-.07.2.17-.1-.07.2.17-.1-.07.2.17-.1-.07.2.17-.1-.07.2.17-.1-.07.2.17-.1-.07.2.17-.1-.07.2.17-.1-.07.2.17-.1-.07.2.17-.1-.07.2.17-.1-.07.2.17-.1-.07.2.17-.1-.07.2.17-.1-.07.2.17-.1-.07.2.17-.1-.07.2.17-.1-.07.2.17-.1-.07.2.17-.1-.07.2.17-.1-.07.2.17-.1-.07.2.17-.1-.07.2.17-.1-.07.2.17-.1-.07.2.17-.1-.07.2.17-.1-.07.2.17-.1-.07.2.17-.1-.07.2.17-.1-.07.2.17-.1-.07.2.17-.1-.07.2.17-.1-.07.2.17-.1-.07.2.17-.1-.07.2.17-.1-.07.2.17-.1-.07.2.17-.1-.07.2.17-.1-.07.2.17-.1-.07.2.17-.1-.07.2.17-.1-.07.2.17-.1-.07.2.17-.1-.07.2.17-.1-.07.2.17-.1-.07.2.17-.1-.07.2.17-.1-.07.2.17-.1-.07.2.17-.1-.07.2.17-.1-.07.2.17-.1-.07.2.17-.1-.07.2.17-.1-.07.2.17-.1-.07.2.17-.1-.07.2.17-.1-.07.2.17-.1-.07.2.17-.1-.07.2.17-.1-.07.2.17-.1-.07.2.17-.1-.07.2.17-.1-.07.2.17-.1-.07.2.17-.1-.07.2.17-.1-.07.2.17-.1-.07.2.17-.1-.07.2.17-.1-.07.2.17-.1-.07.2.17-.1-.07.2.17-.1-.07.2.17-.1-.07.2.17-.1-.07.2.17-.1-.07.2.17-.1-.07.2.17-.1-.07.2.17-.1-.07.2.17-.1-.07.2.17-.1-.07.2.17-.1-.07.2.17-.1-.07.2.17-.1-.07.2.17-.1-.07.2.17-.1-.07.2.17-.1-.07.2.17-.1-.07.2.17-.1-.07.2.17-.1-.07.2.17-.1-.07.2.17-.1-.07.2.17-.1-.07.2.17-.1-.07.2.17-.1-.07.2.17-.1-.07.2.17-.1-.07.2.17-.1-.07.2.17-.1-.07.2.17-.1-.07.2.17-.1-.07.2.17-.1-.07.2.17-.1-.07.2.17-.1-.07.2.17-.1-.07.2.17-.1-.07.2.17-.1-.07.2.17-.1-.07.2.17-.1-.07.2.17-.1-.07.2.17-.1-.07.2.17-.1-.07.2.17-.1-.07.2.17-.1-.07.2.17-.1-.07.2.17-.1-.07.2.17-.1-.07.2.17-.1-.07.2.17-.1-.07.2.17-.1-.07.2.17-.1-.07.2.17-.1-.07.2.17-.1-.07.2.17-.1-.07.2.17-.1-.07.2.17-.1-.07.2.17-.1-.07.2.17-.1-.07.2.17-.1-.07.2.17-.1-.07.2.17-.1-.07.2.17-.1-.07.2.17-.1-.07.2.17-.1-.07.2.17-.1-.07.2.17-.1-.07.2.17-.1-.07.2.17-.1-.07.2.17-.1-.07.2.17-.1-.07.2.17-.1-.07.2.17-.1-.07.2.17-.1-.07.2.17-.1-.07.2.17-.1-.07.2.17-.1-.07.2.17-.1-.07.2.17-.1-.07.2.17-.1-.07.2.17-.1-.07.2.17-.1-.07.2.17-.1-.07.2.17-.1-.07.2.17-.1-.07.2.17-.1-.07.2L95.48 206 99 217.65v-.09l.06.19v-.09l.06.19v-.09l.06.19v-.09l.06.19v-.09l.06.19v-.09l.06.19v-.09l.06.19v-.09l.06.19v-.09l.06.19v-.09l.06.19v-.09l.06.19v-.09l.06.19v-.09l.06.19v-.09l.06.19v-.09l.06.19v-.09l.06.19v-.09l.06.19v-.09l.06.19v-.09l.06.19v-.09l.06.19v-.09l.06.19v-.09l.06.19v-.09l.06.19v-.09l.06.19v-.09l.06.19v-.09l.06.19v-.09l.06.19v-.09l.06.19v-.09l.06.19v-.09l.06.19v-.09l.06.19v-.09l.06.19v-.09l.06.19v-.09l.06.19v-.09l.06.19v-.09l.06.19v-.09l.06.19v-.09l.06.19v-.09l.06.19v-.09l.06.19v-.09l.06.19v-.09l.06.19v-.09l.06.19v-.09l.06.19v-.09l.06.19v-.09l.06.19v-.09l.06.19v-.09l.06.19v-.09l.06.19v-.09l.06.19v-.09l.06.19v-.09l.06.19v-.09l.06.19v-.09l.06.19v-.09l.06.19v-.09l.06.19v-.09l.06.19v-.09l.06.19v-.09l.06.19v-.09l.06.19v-.09l.06.19v-.09l.06.19v-.09l.06.19v-.09l.06.19v-.09l.06.19v-.09l.06.19v-.09l.06.19v-.09l.06.19v-.09l.06.19v-.09l.06.19v-.09l.06.19v-.09l.06.19v-.09l.06.19v-.09l.06.19v-.09l.06.19v-.09l.06.19v-.09l.06.19v-.09l.06.19v-.09l.06.19v-.09l.06.19v-.09l.06.19v-.09l.06.19v-.09l.06.19v-.09l.06.19v-.09l.06.19v-.09l.06.19v-.09l.06.19v-.09l.06.19v-.09l.06.19v-.09l.06.19v-.09l.06.19v-.09l.06.19v-.09l.06.19v-.09l.06.19v-.09l.06.19v-.09l.06.19v-.09l.06.19v-.09l.06.19v-.09l.06.19v-.09l.06.19v-.09l.06.19v-.09l.06.19v-.09l.06.19v-.09l.06.19v-.09l.06.19v-.09l.06.19v-.09l.06.19v-.09l.06.19v-.09l.06.19v-.09l.06.19v-.09l.06.19v-.09l.06.19v-.09l.06.19v-.09l.06.19v-.09l.06.19v-.09l.06.19v-.09l.06.19v-.09l.06.19v-.09l.06.19v-.09l.06.19v-.09l.06.19v-.09l.06.19v-.09l.06.19v-.09l.06.19v-.09l.06.19v-.09l.06.19v-.09l.06.19v-.09l.06.19v-.09l.06.19v-.09l.06.19v-.09l.06.19v-.09l.06.19v-.09l.06.19v-.09l.06.19v-.09l.06.19v-.09l.06.19v-.09l.06.19v-.09l.06.19v-.09l.06.19v-.09l.06.19v-.09l.06.19v-.09l.06.19v-.09l.06.19v-.09l.06.19v-.09l.06.19v-.09l.06.19v-.09l.06.19v-.09l.06.19v-.09l.06.19v-.09l.06.19v-.09l.06.19v-.09l.06.19v-.09l.06.19v-.09l.06.19v-.09l.06.19v-.09l.06.19v-.09l.06.19v-.09l.06.19v-.09l.06.19v-.09l.06.19v-.09l.06.19v-.09l.06.19v-.09l.06.19v-.09l.06.19v-.09l.06.19v-.09l.06.19v-.09l.06.19v-.09l.06.19v-.09l.06.19v-.09l.06.19v-.09l.06.19v-.09l.06.19v-.09l.06.19v-.09l.06.19v-.09l.06.19v-.09l.06.19v-.09l.06.19v-.09l.06.19v-.09l.06.19v-.09l.06.19v-.09l.06.19v-.09l.06.19v-.09l.06.19v-.09l.06.19v-.09l.06.19v-.09l.06.19v-.09l.06.19v-.09l.06.19v-.09l.06.19v-.09l.06.19v-.09l.06.19v-.09l.06.19v-.09l.06.19v-.09l.06.19v-.09l.06.19v-.09l.06.19v-.09l.06.19v-.09l.06.19v-.09l.06.19v-.09l.06.19v-.09l.06.19v-.09l.06.19v-.09l.06.19v-.09l.06.19v-.09l.06.19v-.09l.06.19v-.09l.06.19v-.09l.06.19v-.09l.06.19v-.09l.06.19v-.09l.06.19v-.09l.06.19v-.09l.06.19v-.09l.06.19v-.09l.06.19v-.09l.06.19v-.09l.06.19v-.09l.06.19v-.09l.06.19v-.09l.06.19v-.09l.06.19v-.09l.06.19v-.09l.06.19v-.09l.06.19v-.09l.06.19v-.09l.06.19v-.09l.06.19v-.09l.06.19v-.09l.06.19v-.09l.06.19v-.09l.06.19v-.09l.06.19v-.09l.06.19v-.09l.06.19v-.09l.06.19v-.09l.06.19v-.09l.06.19v-.09l.06.19v-.09l.06.19v-.09l.06.19v-.09l.06.19v-.09l.06.19v-.09l.06.19v-.09l.06.19v-.09l.06.19v-.09l.06.19v-.09l.06.19v-.09l.06.19v-.09l.06.19v-.09l.06.19v-.09l.06.19v-.09l.06.19v-.09l.06.19v-.09l.06.19v-.09l.06.19v-.09l.06.19v-.09l.06.19v-.09l.06.19v-.09l.06.19v-.09l.06.19v-.09l.06.19v-.09l.06.19v-.09l.06.19v-.09l.06.19v-.09l.06.19v-.09l.06.19v-.09l.06.19v-.09l.06.19v-.09l.06.19v-.09l.06.19v-.09l.06.19v-.09l.06.19v-.09l.06.19v-.09l.06.19v-.09l.06.19v-.09l.06.19v-.09l.06.19v-.09l.06.19v-.09l.06.19v-.09l.06.19v-.09l.06.19v-.09l.06.19v-.09l.06.19v-.09l.06.19v-.09l.06.19v-.09l.06.19v-.09l.06.19v-.09l.06.19v-.09l.06.19v-.09l.06.19v-.09l.06.19v-.09l.06.19v-.09l.06.19v-.09l.06.19v-.09l.06.19v-.09l.06.19v-.09l.06.19v-.09l.06.19v-.09l.06.19v-.09l.06.19 14.44-33a75.75 75.75 0 0 0 22.08-5.74l28.68 21.76-7.71-35.18A76.59 76.59 0 0 0 201 177.88l36 .74-.11-.1z"/><path class="cls-3" d="M164.22 200.68l-43.37-32.9-21.83 49.87-15.75-52.11-46.98 27.51 17.89-51.42L0 136.29l44.7-31.09L4.01 69.03l54.43 1.12-11.66-53.18 43.38 32.9L111.99 0l15.75 52.11 46.97-27.52-17.88 51.42L211 81.36l-44.69 31.09L207 148.62l-54.43-1.12 11.65 53.18z"/><circle class="cls-4" cx="105.5" cy="108.82" r="76.25"/><path class="cls-5" d="M29.25 108.82a76.25 76.25 0 0 0 76.25 76.25V32.57a76.25 76.25 0 0 0-76.25 76.25z"/></g></g></g></svg>