<svg xmlns="http://www.w3.org/2000/svg" xmlns:xlink="http://www.w3.org/1999/xlink" viewBox="0 0 214.58 156.38"><defs><style>.cls-1{isolation:isolate;}.cls-2{mix-blend-mode:multiply;fill:url(#Degradado_sin_nombre_2);}.cls-3{fill:#f4f4f4;}.cls-4{fill:#fff;}</style><linearGradient id="Degradado_sin_nombre_2" x1="149.1" y1="140.87" x2="26.6" y2="-6.96" gradientUnits="userSpaceOnUse"><stop offset="0" stop-color="#fff" stop-opacity="0"/><stop offset="1"/></linearGradient></defs><title>Asset 2</title><g class="cls-1"><g id="Layer_2" data-name="Layer 2"><g id="Objects"><path class="cls-2" d="M214.58,122.49,164.09,58a23.16,23.16,0,0,0-3.56-5l-.13-.13-.13-.13-.13-.13-.13-.13-.13-.13-.13-.13-.13-.13-.13-.13-.13-.13-.13-.13-.13-.13-.13-.13-.13-.13-.13-.13-.13-.13-.13-.13-.13-.13-.13-.13-.13-.13-.13-.13-.13-.13-.13-.13-.13-.13-.13-.13-.13-.13-.13-.13-.13-.13-.13-.13-.13-.13-.13-.13-.13-.13-.13-.13-.13-.13-.13-.13-.13-.13-.13-.13-.13-.13-.13-.13-.13-.13-.13-.13-.13-.13-.13-.13-.13-.13-.13-.13-.13-.13-.13-.13-.13-.13-.13-.13-.13-.13-.13-.13-.13-.13-.13-.13-.13-.13-.13-.13-.13-.13-.13-.13-.13-.13-.13-.13-.13-.13-.13-.13-.13-.13-.13-.13-.13-.13-.13-.13-.13-.13-.13-.13-.13-.13-.13-.13-.13-.13-.13-.13-.13-.13-.13-.13-.13-.13-.13-.13-.13-.13-.13-.13-.13-.13-.13-.13-.13-.13-.13-.13-.13-.13-.13-.13-.13-.13-.13-.13-.13-.13-.13-.13L149,41.5l-.13-.13-.13-.13-.13-.13-.13-.13-.13-.13-.13-.13-.13-.13-.13-.13-.13-.13-.13-.13-.13-.13-.13-.13a23.35,23.35,0,0,0-4.53-3.78,33.14,33.14,0,0,0-6-9l-.13-.13-.13-.13-.13-.13-.13-.13-.13-.13-.13-.13-.13-.13-.13-.13-.13-.13-.13-.13-.13-.13-.13-.13-.13-.13-.13-.13-.13-.13-.13-.13-.13-.13-.13-.13-.13-.13-.13-.13-.13-.13-.13-.13-.13-.13-.13-.13-.13-.13-.13-.13-.13-.13-.13-.13-.13-.13-.13-.13-.13-.13-.13-.13-.13-.13-.13-.13-.13-.13-.13-.13-.13-.13-.13-.13-.13-.13-.13-.13-.13-.13-.13-.13-.13-.13-.13-.13-.13-.13-.13-.13-.13-.13-.13-.13-.13-.13-.13-.13-.13-.13-.13-.13-.13-.13-.13-.13-.13-.13-.13-.13-.13-.13-.13-.13-.13-.13-.13-.13-.13-.13-.13-.13-.13-.13-.13-.13-.13-.13-.13-.13-.13-.13-.13-.13-.13-.13-.13-.13-.13-.13-.13-.13-.13-.13-.13-.13L127,17.2l-.13-.13-.13-.13-.13-.13-.13-.13-.13-.13-.13-.13-.13-.13-.13-.13-.13-.13-.13-.13-.13-.13-.13-.13-.13-.13-.13-.13-.13-.13-.13-.13-.13-.13-.13-.13-.13-.13-.13-.13-.13-.13-.13-.13-.13-.13-.13-.13a32.46,32.46,0,0,0-44.68-2.79L79,11.15l0,0L78.91,11l0,0-.12-.11,0,0-.12-.11,0,0-.12-.11,0,0-.12-.11,0,0-.12-.11,0,0-.12-.11,0,0L78,10.1l0,0L77.86,10l0,0-.12-.11,0,0-.12-.11,0,0-.12-.11,0,0-.12-.11,0,0L77.2,9.3l0,0-.12-.11,0,0L76.93,9l0,0-.12-.11,0,0A29,29,0,0,0,55.92,0,29.32,29.32,0,0,0,27.31,23,29.23,29.23,0,0,0,8.66,72.92l.13.13.13.13.13.13.13.13.13.13.13.13.13.13.13.13.13.13.13.13.13.13.13.13.13.13.13.13.13.13.13.13.13.13.13.13.13.13.13.13.13.13.13.13.13.13.13.13.13.13.13.13.13.13.13.13.13.13.13.13.13.13.13.13.13.13.13.13.13.13.13.13.13.13.13.13.13.13.13.13.13.13.13.13.13.13.13.13.13.13.13.13.13.13.13.13.13.13.13.13.13.13.13.13.13.13.13.13.13.13.13.13.13.13.13.13.13.13.13.13.13.13.13.13.13.13.13.13.13.13.13.13.13.13.13.13.13.13.13.13.13.13.13.13.13.13.13.13.13.13.13.13.13.13.13.13.13.13.13.13.13.13.13.13.13.13.13.13.13.13.13.13.13.13.13.13.13.13.13.13.13.13.13.13.13.13.13.13.13.13.13.13.13.13.13.13.13.13A29.53,29.53,0,0,0,25,88.82l69.43,67.56Z"/><path class="cls-3" d="M55.92,0A29.32,29.32,0,0,0,27.31,23,29.26,29.26,0,1,0,39.13,79.65a29.09,29.09,0,0,0,37.66,8.57V8.89A29,29,0,0,0,55.92,0Z"/><path class="cls-4" d="M132.47,32.51A32.63,32.63,0,0,0,79,11.37a30.36,30.36,0,0,0-2.17-2.48V88.22c.74-.41,1.47-.83,2.17-1.3a29.2,29.2,0,0,0,46.89-8.51,22.73,22.73,0,0,0,4.44.44,23.22,23.22,0,0,0,2.18-46.34Z"/></g></g></g></svg>