<svg xmlns="http://www.w3.org/2000/svg" xmlns:xlink="http://www.w3.org/1999/xlink" viewBox="0 0 241 247.65"><defs><style>.cls-1{isolation:isolate;}.cls-2{opacity:0.5;mix-blend-mode:multiply;fill:url(#Degradado_sin_nombre_2);}.cls-3{fill:#d3b920;}.cls-4{fill:#fbed62;}.cls-5{fill:#ead957;}</style><linearGradient id="Degradado_sin_nombre_2" x1="193.19" y1="229.55" x2="46.52" y2="16.22" gradientUnits="userSpaceOnUse"><stop offset="0" stop-color="#fff" stop-opacity="0"/><stop offset="1"/></linearGradient></defs><title>Asset 3</title><g class="cls-1"><g id="Layer_2" data-name="Layer 2"><g id="Objects"><path class="cls-2" d="M236.9,178.52l-.11-.1h0l-.11-.1h0l-.11-.1h0l-.11-.1h0l-.11-.1h0l-.11-.1h0l-.11-.1h0l-.11-.1h0l-.11-.1h0l-.11-.1h0l-.11-.1h0l-.11-.1h0l-.11-.1h0l-.11-.1h0l-.11-.1h0l-.11-.1h0l-.11-.1h0l-.11-.1h0l-.11-.1h0l-.11-.1h0l-.11-.1h0l-.11-.1h0l-.11-.1h0l-.11-.1h0l-.11-.1h0l-.11-.1h0l-.11-.1h0l-.11-.1h0l-.11-.1h0l-.11-.1h0l-.11-.1h0l-.11-.1h0l-.11-.1h0l-.11-.1h0l-.11-.1h0l-.11-.1h0l-.11-.1h0l-.11-.1h0l-.11-.1h0l-.11-.1h0l-.11-.1h0l-.11-.1h0l-.11-.1h0l-.11-.1h0l-.11-.1h0l-.11-.1h0l-.11-.1h0l-.11-.1h0l-.11-.1h0l-.11-.1h0l-.11-.1h0l-.11-.1h0l-.11-.1h0l-.11-.1h0l-.11-.1h0l-.11-.1h0l-.11-.1h0l-.11-.1h0l-.11-.1h0l-.11-.1h0l-.11-.1h0l-.11-.1h0l-.11-.1h0l-.11-.1h0l-.11-.1h0l-.11-.1h0l-.11-.1h0l-.11-.1h0l-.11-.1h0l-.11-.1h0l-.11-.1h0l-.11-.1h0l-.11-.1h0l-.11-.1h0l-.11-.1h0l-.11-.1h0l-.11-.1h0l-.11-.1h0l-.11-.1h0l-.11-.1h0l-.11-.1h0l-.11-.1h0l-.11-.1h0l-.11-.1h0l-.11-.1h0l-.11-.1h0l-.11-.1h0l-.11-.1h0l-.11-.1h0l-.11-.1h0l-.11-.1h0l-.11-.1h0l-.11-.1h0l-.11-.1h0l-.11-.1h0l-.11-.1h0l-.11-.1h0l-.11-.1h0l-.11-.1h0l-.11-.1h0l-.11-.1h0l-.11-.1h0l-.11-.1h0l-.11-.1h0l-.11-.1h0l-.11-.1h0l-.11-.1h0l-.11-.1h0l-.11-.1h0l-.11-.1h0l-.11-.1h0l-.11-.1h0l-.11-.1h0l-.11-.1h0l-.11-.1h0l-.11-.1h0l-.11-.1h0l-.11-.1h0l-.11-.1h0l-.11-.1h0l-.11-.1h0l-.11-.1h0l-.11-.1h0l-.11-.1h0l-.11-.1h0l-.11-.1h0l-.11-.1h0l-.11-.1h0l-.11-.1h0l-.11-.1h0l-.11-.1h0l-.11-.1h0l-.11-.1h0l-.11-.1h0l-.11-.1h0l-.11-.1h0l-.11-.1h0l-.11-.1h0l-.11-.1h0l-.11-.1h0l-.11-.1h0l-.11-.1h0l-.11-.1h0l-.11-.1h0l-.11-.1h0l-.11-.1h0l-.11-.1h0l-.11-.1h0l-.11-.1h0l-.11-.1h0l-.11-.1h0l-.11-.1h0l-.11-.1h0l-.11-.1h0l-.11-.1h0l-.11-.1h0l-.11-.1h0l-.11-.1h0l-.11-.1h0l-.11-.1h0l-.11-.1h0l-.11-.1h0l-.11-.1h0l-.11-.1h0l-.11-.1h0l-.11-.1h0l-.11-.1h0l-.11-.1h0l-.11-.1h0l-.11-.1h0l-.11-.1h0l-.11-.1h0l-.11-.1h0l-.11-.1h0l-.11-.1h0l-.11-.1h0l-.11-.1h0l-.11-.1h0l-.11-.1h0l-.11-.1h0l-.11-.1h0l-.11-.1h0l-.11-.1h0l-.11-.1h0l-.11-.1h0l-.11-.1h0l-.11-.1h0l-.11-.1h0l-.11-.1h0l-.11-.1h0l-.11-.1h0l-.11-.1h0l-.11-.1h0l-.11-.1h0l-.11-.1h0l-.11-.1h0l-.11-.1h0l-.11-.1h0l-.11-.1h0l-.11-.1h0l-.11-.1h0l-.11-.1h0l-.11-.1h0l-.11-.1h0l-.11-.1h0l-.11-.1h0l-.11-.1h0l-.11-.1h0l-.11-.1h0l-.11-.1h0l-.11-.1h0l-.11-.1h0l-.11-.1h0l-.11-.1h0l-.11-.1h0l-.11-.1h0l-.11-.1h0l-.11-.1h0l-.11-.1h0l-.11-.1h0l-.11-.1h0l-.11-.1h0l-.11-.1h0l-.11-.1h0l-.11-.1h0l-.11-.1h0l-.11-.1h0l-.11-.1h0l-.11-.1h0l-.11-.1h0l-.11-.1h0l-.11-.1h0l-.11-.1h0l-.11-.1h0l-.11-.1h0l-.11-.1h0l-.11-.1h0l-.11-.1h0l-.11-.1h0l-.11-.1h0l-.11-.1h0l-.11-.1h0l-.11-.1h0l-.11-.1h0l-.11-.1h0l-.11-.1h0l-.11-.1h0l-.11-.1h0l-.11-.1h0l-.11-.1h0l-.11-.1h0l-.11-.1h0l-.11-.1h0l-.11-.1h0l-.11-.1h0l-.11-.1h0l-.11-.1h0l-.11-.1h0l-.11-.1h0l-.11-.1h0l-.11-.1h0l-.11-.1h0l-.11-.1h0l0,0a76.35,76.35,0,0,0,1.2-13.36c0-2.32-.12-4.62-.32-6.89L241,111.36l-.21,0,.11-.08-.21,0,.11-.08-.21,0,.11-.08-.21,0,.11-.08-.21,0,.11-.08-.21,0,.11-.08-.21,0,.11-.08-.21,0,.11-.08-.21,0,.11-.08-.21,0,.11-.08-.21,0,.11-.08-.21,0,.11-.08-.21,0,.11-.08-.21,0,.11-.08-.21,0,.11-.08-.21,0,.11-.08-.21,0,.11-.08-.21,0,.11-.08-.21,0,.11-.08-.21,0,.11-.08-.21,0,.11-.08-.21,0,.11-.08-.21,0,.11-.08-.21,0,.11-.08-.21,0,.11-.08-.21,0,.11-.08-.21,0,.11-.08-.21,0,.11-.08-.21,0,.11-.08-.21,0,.11-.08-.21,0,.11-.08-.21,0,.11-.08-.21,0,.11-.08-.21,0,.11-.08-.21,0,.11-.08-.21,0,.11-.08-.21,0,.11-.08-.21,0,.11-.08-.21,0,.11-.08-.21,0,.11-.08-.21,0,.11-.08-.21,0,.11-.08-.21,0,.11-.08-.21,0,.11-.08-.21,0,.11-.08-.21,0,.11-.08-.21,0,.11-.08-.21,0,.11-.08-.21,0,.11-.08-.21,0,.11-.08-.21,0,.11-.08-.21,0,.11-.08-.21,0,.11-.08-.21,0,.11-.08-.21,0,.11-.08-.21,0,.11-.08-.21,0,.11-.08-.21,0,.11-.08-.21,0,.11-.08-.21,0,.11-.08-.21,0,.11-.08-.21,0,.11-.08-.21,0,.11-.08-.21,0,.11-.08-.21,0,.11-.08-.21,0,.11-.08-.21,0,.11-.08-.21,0,.11-.08-.21,0,.11-.08-.21,0,.11-.08-.21,0,.11-.08-.21,0,.11-.08-.21,0,.11-.08-.21,0,.11-.08-.21,0,.11-.08-.21,0,.11-.08-.21,0,.11-.08-.21,0,.11-.08-.21,0,.11-.08-.21,0,.11-.08-.21,0,.11-.08-.21,0,.11-.08-.21,0,.11-.08-.21,0,.11-.08-.21,0,.11-.08-.21,0,.11-.08-.21,0,.11-.08-.21,0,.11-.08-.21,0,.11-.08-.21,0,.11-.08-.21,0,.11-.08-.21,0,.11-.08-.21,0,.11-.08-.21,0,.11-.08-.21,0,.11-.08-.21,0,.11-.08-.21,0,.11-.08-.21,0,.11-.08-.21,0,.11-.08-.21,0,.11-.08-.21,0,.11-.08-.21,0,.11-.08-.21,0,.11-.08-.21,0,.11-.08-.21,0,.11-.08-.21,0,.11-.08-.21,0,.11-.08-.21,0,.11-.08-.21,0,.11-.08-.21,0,.11-.08-.21,0,.11-.08-.21,0,.11-.08-.21,0,.11-.08-.21,0,.11-.08-.21,0,.11-.08-.21,0,.11-.08-.21,0,.11-.08-.21,0,.11-.08-.21,0,.11-.08-.21,0,.11-.08-.21,0,.11-.08-.21,0,.11-.08-.21,0,.11-.08-.21,0,.11-.08-.21,0,.11-.08-.21,0,.11-.08-.21,0,.11-.08-.21,0,.11-.08-.21,0,.11-.08-.21,0,.11-.08-.21,0,.11-.08-.21,0,.11-.08-.21,0,.11-.08-.21,0,.11-.08-.21,0,.11-.08-.21,0,.11-.08-.21,0,.11-.08-.21,0,.11-.08-.21,0,.11-.08-.21,0,.11-.08-.21,0,.11-.08-.21,0,.11-.08-.21,0,.11-.08-.21,0,.11-.08-.21,0,.11-.08-.21,0,.11-.08-.21,0,.11-.08-.21,0,.11-.08-.21,0,.11-.08-.21,0,.11-.08-.21,0,.11-.08-.21,0,.11-.08-.21,0,.11-.08-.21,0,.11-.08-.21,0,.11-.08-.21,0,.11-.08-.21,0,.11-.08-.21,0,.11-.08-.21,0,.11-.08-.21,0,.11-.08-.21,0,.11-.08-.21,0,.11-.08-.21,0,.11-.08-.21,0,.11-.08-.21,0,.11-.08-.21,0,.11-.08-.21,0,.11-.08-.21,0,.11-.08-.21,0,.11-.08-.21,0,.11-.08-.21,0,.11-.08-.21,0,.11-.08-.21,0,.11-.08-.21,0,.11-.08-.21,0,.11-.08-.21,0,.11-.08-.21,0,.11-.08-.21,0,.11-.08-.21,0,.11-.08-.21,0,.11-.08-.21,0,.11-.08-.21,0,.11-.08-.21,0,.11-.08-.21,0,.11-.08-.21,0,.11-.08-.21,0,.11-.08-.21,0,.11-.08-.21,0,.11-.08-.21,0,.11-.08-.21,0,.11-.08-.21,0,.11-.08-.21,0,.11-.08-.21,0,.11-.08-.21,0,.11-.08-.21,0,.11-.08-.21,0,.11-.08-.21,0,.11-.08-.21,0,.11-.08-.21,0,.11-.08-.21,0,.11-.08-.21,0,.11-.08-.21,0,.11-.08-.21,0,.11-.08-.21,0,.11-.08-.21,0,.11-.08-.21,0,.11-.08-.21,0,.11-.08-.21,0,.11-.08-.21,0,.11-.08-.21,0,.11-.08-.21,0,.11-.08-.21,0,.11-.08-.21,0,.11-.08-.21,0,.11-.08-.21,0,.11-.08-.21,0,.11-.08-.21,0,.11-.08-.21,0,.11-.08-.21,0,.11-.08-.21,0,.11-.08-.21,0,.11-.08-.21,0,.11-.08-.21,0,.11-.08-.21,0,.11-.08-.21,0,.11-.08-.21,0,.11-.08-.21,0,.11-.08-.21,0,.11-.08-.21,0,.11-.08-.21,0,.11-.08-.21,0,.11-.08-.21,0,.11-.08-.21,0,.11-.08-.21,0,.11-.08-.21,0,.11-.08-.21,0,.11-.08-.21,0,.11-.08-.21,0,.11-.08-.21,0,.11-.08-.21,0,.11-.08-.21,0,.11-.08-.21,0,.11-.08-.21,0,.11-.08-.21,0,.11-.08-.21,0,.11-.08-.21,0,.11-.08-.21,0,.11-.08-.21,0,.11-.08-.21,0,.11-.08-.21,0,.11-.08-.21,0,.11-.08-.21,0,.11-.08-.21,0,.11-.08-.21,0,.11-.08-.21,0,.11-.08-.21,0,.11-.08-.21,0,.11-.08-.21,0,.11-.08-.21,0,.11-.08-.21,0,.11-.08-.21,0,.11-.08-.21,0,.11-.08-.21,0,.11-.08-.21,0,.11-.08-.21,0,.11-.08-.21,0,.11-.08-.21,0,.11-.08-.21,0,.11-.08-.21,0,.11-.08-.21,0,.11-.08-.21,0,.11-.08-.21,0,.11-.08-.21,0,.11-.08-.21,0,.11-.08-.21,0,.11-.08-.21,0,.11-.08-.21,0,.11-.08-.21,0,.11-.08-.21,0,.11-.08-.21,0,.11-.08-.21,0,.11-.08-.21,0,.11-.08-.21,0,.11-.08-.21,0,.11-.08-.21,0,.11-.08-.21,0,.11-.08-.21,0,.11-.08-.21,0,.11-.08-.21,0,.11-.08-.21,0,.11-.08-.21,0,.11-.08-.21,0,.11-.08-.21,0,.11-.08-.21,0,.11-.08-.21,0,.11-.08-.21,0,.11-.08-.21,0,.11-.08-.21,0,.11-.08-.21,0,.11-.08-.21,0,.11-.08-15.08-1.49,8.79-25.28-.17.1.07-.2-.17.1.07-.2-.17.1.07-.2-.17.1.07-.2-.17.1.07-.2-.17.1.07-.2-.17.1.07-.2-.17.1.07-.2-.17.1.07-.2-.17.1.07-.2-.17.1.07-.2-.17.1.07-.2-.17.1.07-.2-.17.1.07-.2-.17.1.07-.2-.17.1.07-.2-.17.1.07-.2-.17.1.07-.2-.17.1.07-.2-.17.1.07-.2-.17.1.07-.2-.17.1.07-.2-.17.1.07-.2-.17.1.07-.2-.17.1.07-.2-.17.1.07-.2-.17.1.07-.2-.17.1.07-.2-.17.1.07-.2-.17.1.07-.2-.17.1.07-.2-.17.1.07-.2-.17.1.07-.2-.17.1.07-.2-.17.1.07-.2-.17.1.07-.2-.17.1.07-.2-.17.1.07-.2-.17.1.07-.2-.17.1.07-.2-.17.1.07-.2-.17.1.07-.2-.17.1.07-.2-.17.1.07-.2-.17.1.07-.2-.17.1.07-.2-.17.1.07-.2-.17.1.07-.2-.17.1.07-.2-.17.1.07-.2-.17.1.07-.2-.17.1.07-.2-.17.1.07-.2-.17.1.07-.2-.17.1.07-.2-.17.1.07-.2-.17.1.07-.2-.17.1.07-.2-.17.1.07-.2-.17.1.07-.2-.17.1.07-.2-.17.1.07-.2-.17.1.07-.2-.17.1.07-.2-.17.1.07-.2-.17.1.07-.2-.17.1.07-.2-.17.1.07-.2-.17.1.07-.2-.17.1.07-.2-.17.1.07-.2-.17.1.07-.2-.17.1.07-.2-.17.1.07-.2-.17.1.07-.2-.17.1.07-.2-.17.1.07-.2-.17.1.07-.2-.17.1.07-.2-.17.1.07-.2-.17.1.07-.2-.17.1.07-.2-.17.1.07-.2-.17.1.07-.2-.17.1.07-.2-.17.1.07-.2-.17.1.07-.2-.17.1.07-.2-.17.1.07-.2-.17.1.07-.2-.17.1.07-.2-.17.1.07-.2-.17.1.07-.2-.17.1.07-.2-.17.1.07-.2-.17.1.07-.2-.17.1.07-.2-.17.1.07-.2-.17.1.07-.2-.17.1.07-.2-.17.1.07-.2-.17.1.07-.2-.17.1.07-.2-.17.1.07-.2-.17.1.07-.2-.17.1.07-.2-.17.1.07-.2-.17.1.07-.2-.17.1.07-.2-.17.1.07-.2-.17.1.07-.2-.17.1.07-.2-.17.1.07-.2-.17.1.07-.2-.17.1.07-.2-.17.1.07-.2-.17.1.07-.2-.17.1.07-.2-.17.1.07-.2-.17.1.07-.2-.17.1.07-.2-.17.1.07-.2-.17.1.07-.2-.17.1.07-.2-.17.1.07-.2-.17.1.07-.2-.17.1.07-.2-.17.1.07-.2-.17.1.07-.2-.17.1.07-.2-.17.1.07-.2-.17.1.07-.2-.17.1.07-.2-.17.1.07-.2-.17.1.07-.2-.17.1.07-.2-.17.1.07-.2-.17.1.07-.2-.17.1.07-.2-.17.1.07-.2-.17.1.07-.2-.17.1.07-.2-.17.1.07-.2-.17.1.07-.2-.17.1.07-.2-.17.1.07-.2-.17.1.07-.2-.17.1.07-.2-.17.1.07-.2-.17.1.07-.2-.17.1.07-.2-.17.1.07-.2-.17.1.07-.2-.17.1.07-.2-.17.1.07-.2-.17.1.07-.2-.17.1.07-.2-.17.1.07-.2-.17.1.07-.2-.17.1.07-.2-.17.1.07-.2-.17.1.07-.2-.17.1.07-.2-.17.1.07-.2-.17.1.07-.2-.17.1.07-.2-.17.1.07-.2-.17.1.07-.2-.17.1.07-.2-.17.1.07-.2-.17.1.07-.2-.17.1.07-.2-.17.1.07-.2-.17.1.07-.2-.17.1.07-.2-.17.1.07-.2-.17.1.07-.2-.17.1.07-.2-.17.1.07-.2-.17.1.07-.2-.17.1.07-.2-.17.1.07-.2-.17.1.07-.2-.17.1.07-.2-.17.1.07-.2-.17.1.07-.2-.17.1.07-.2-.17.1.07-.2-.17.1.07-.2-.17.1.07-.2-.17.1.07-.2-.17.1.07-.2-.17.1.07-.2-.17.1.07-.2-.17.1.07-.2-.17.1.07-.2-.17.1.07-.2-.17.1.07-.2-.17.1.07-.2-.17.1.07-.2-.17.1.07-.2-.17.1.07-.2-.17.1.07-.2-.17.1.07-.2-.17.1.07-.2-.17.1.07-.2-.17.1.07-.2-.17.1.07-.2-.17.1.07-.2-.17.1.07-.2-.17.1.07-.2-.17.1.07-.2-.17.1.07-.2-.17.1.07-.2-.17.1.07-.2-.17.1.07-.2-.17.1.07-.2-.17.1.07-.2-.17.1.07-.2-.17.1.07-.2-.17.1.07-.2-.17.1.07-.2-.17.1.07-.2-.17.1.07-.2-.17.1.07-.2-.17.1.07-.2-.17.1.07-.2-.17.1.07-.2-.17.1.07-.2-.17.1.07-.2-.17.1.07-.2-.17.1.07-.2-.17.1.07-.2-.17.1.07-.2-.17.1.07-.2-.17.1.07-.2-.17.1.07-.2-.17.1.07-.2-.17.1.07-.2-.17.1.07-.2-.17.1.07-.2-.17.1.07-.2-.17.1.07-.2-.17.1.07-.2-.17.1.07-.2-.17.1.07-.2-.17.1.07-.2-.17.1.07-.2-.17.1.07-.2-.17.1.07-.2-.17.1.07-.2-.17.1.07-.2-.17.1.07-.2-.17.1.07-.2-.17.1.07-.2-.17.1.07-.2-.17.1.07-.2-.17.1.07-.2-.17.1.07-.2-.17.1.07-.2-.17.1.07-.2-.17.1.07-.2-.17.1.07-.2-.17.1.07-.2-.17.1.07-.2-.17.1.07-.2-.17.1.07-.2-.17.1.07-.2-.17.1.07-.2-.17.1.07-.2-.17.1.07-.2-.17.1.07-.2-.17.1.07-.2-.17.1.07-.2-.17.1.07-.2-.17.1.07-.2-.17.1.07-.2-.17.1.07-.2-.17.1.07-.2-.17.1.07-.2-.17.1.07-.2-.17.1.07-.2-.17.1.07-.2-.17.1.07-.2-.17.1.07-.2-.17.1.07-.2-.17.1.07-.2-.17.1.07-.2-.17.1.07-.2-.17.1.07-.2-.17.1.07-.2-.17.1.07-.2-.17.1.07-.2-.17.1.07-.2-.17.1.07-.2-.17.1.07-.2-.17.1.07-.2-.17.1.07-.2-.17.1.07-.2-.17.1.07-.2L145.52,41.7,142,30l0,.09-.06-.19,0,.09-.06-.19,0,.09-.06-.19,0,.09-.06-.19,0,.09-.06-.19,0,.09-.06-.19,0,.09-.06-.19,0,.09-.06-.19,0,.09-.06-.19,0,.09L141,29l0,.09-.06-.19,0,.09-.06-.19,0,.09-.06-.19,0,.09-.06-.19,0,.09-.06-.19,0,.09-.06-.19,0,.09-.06-.19,0,.09-.06-.19,0,.09-.06-.19,0,.09L140,28l0,.09-.06-.19,0,.09-.06-.19,0,.09-.06-.19,0,.09-.06-.19,0,.09-.06-.19,0,.09-.06-.19,0,.09-.06-.19,0,.09-.06-.19,0,.09-.06-.19,0,.09L139,27l0,.09-.06-.19,0,.09-.06-.19,0,.09-.06-.19,0,.09-.06-.19,0,.09-.06-.19,0,.09-.06-.19,0,.09-.06-.19,0,.09-.06-.19,0,.09-.06-.19,0,.09L138,26l0,.09-.06-.19,0,.09-.06-.19,0,.09-.06-.19,0,.09-.06-.19,0,.09-.06-.19,0,.09-.06-.19,0,.09-.06-.19,0,.09-.06-.19,0,.09-.06-.19,0,.09L137,25l0,.09-.06-.19,0,.09-.06-.19,0,.09-.06-.19,0,.09-.06-.19,0,.09-.06-.19,0,.09-.06-.19,0,.09-.06-.19,0,.09-.06-.19,0,.09-.06-.19,0,.09L136,24l0,.09-.06-.19,0,.09-.06-.19,0,.09-.06-.19,0,.09-.06-.19,0,.09-.06-.19,0,.09-.06-.19,0,.09-.06-.19,0,.09-.06-.19,0,.09-.06-.19,0,.09L135,23l0,.09-.06-.19,0,.09-.06-.19,0,.09-.06-.19,0,.09-.06-.19,0,.09-.06-.19,0,.09-.06-.19,0,.09-.06-.19,0,.09-.06-.19,0,.09-.06-.19,0,.09L134,22l0,.09-.06-.19,0,.09-.06-.19,0,.09-.06-.19,0,.09-.06-.19,0,.09-.06-.19,0,.09-.06-.19,0,.09-.06-.19,0,.09-.06-.19,0,.09-.06-.19,0,.09L133,21l0,.09-.06-.19,0,.09-.06-.19,0,.09-.06-.19,0,.09-.06-.19,0,.09-.06-.19,0,.09-.06-.19,0,.09-.06-.19,0,.09-.06-.19,0,.09-.06-.19,0,.09L132,20l0,.09-.06-.19,0,.09-.06-.19,0,.09-.06-.19,0,.09-.06-.19,0,.09-.06-.19,0,.09-.06-.19,0,.09-.06-.19,0,.09-.06-.19,0,.09-.06-.19,0,.09L131,19l0,.09-.06-.19,0,.09-.06-.19,0,.09-.06-.19,0,.09-.06-.19,0,.09-.06-.19,0,.09-.06-.19,0,.09-.06-.19,0,.09-.06-.19,0,.09-.06-.19,0,.09L130,18l0,.09-.06-.19,0,.09-.06-.19,0,.09-.06-.19,0,.09-.06-.19,0,.09-.06-.19,0,.09-.06-.19,0,.09-.06-.19,0,.09-.06-.19,0,.09-.06-.19,0,.09L129,17l0,.09-.06-.19,0,.09-.06-.19,0,.09-.06-.19,0,.09-.06-.19,0,.09-.06-.19,0,.09-.06-.19,0,.09-.06-.19,0,.09-.06-.19,0,.09-.06-.19,0,.09L128,16l0,.09-.06-.19,0,.09-.06-.19,0,.09-.06-.19,0,.09-.06-.19,0,.09-.06-.19,0,.09-.06-.19,0,.09-.06-.19,0,.09-.06-.19,0,.09-.06-.19,0,.09L127,15l0,.09-.06-.19,0,.09-.06-.19,0,.09-.06-.19,0,.09-.06-.19,0,.09-.06-.19,0,.09-.06-.19,0,.09-.06-.19,0,.09-.06-.19,0,.09-.06-.19,0,.09L126,14l0,.09-.06-.19,0,.09-.06-.19,0,.09-.06-.19,0,.09-.06-.19,0,.09-.06-.19,0,.09-.06-.19,0,.09-.06-.19,0,.09-.06-.19,0,.09-.06-.19,0,.09L125,13l0,.09-.06-.19,0,.09-.06-.19,0,.09-.06-.19,0,.09-.06-.19,0,.09-.06-.19,0,.09-.06-.19,0,.09-.06-.19,0,.09-.06-.19,0,.09-.06-.19,0,.09L124,12l0,.09-.06-.19,0,.09-.06-.19,0,.09-.06-.19,0,.09-.06-.19,0,.09-.06-.19,0,.09-.06-.19,0,.09-.06-.19,0,.09-.06-.19,0,.09-.06-.19,0,.09L123,11l0,.09-.06-.19,0,.09-.06-.19,0,.09-.06-.19,0,.09-.06-.19,0,.09-.06-.19,0,.09-.06-.19,0,.09-.06-.19,0,.09-.06-.19,0,.09-.06-.19,0,.09L122,10l0,.09-.06-.19,0,.09-.06-.19,0,.09-.06-.19,0,.09-.06-.19,0,.09-.06-.19,0,.09-.06-.19,0,.09-.06-.19,0,.09-.06-.19,0,.09-.06-.19,0,.09L121,9l0,.09-.06-.19,0,.09-.06-.19,0,.09-.06-.19,0,.09-.06-.19,0,.09-.06-.19,0,.09-.06-.19,0,.09-.06-.19,0,.09-.06-.19,0,.09-.06-.19,0,.09L120,8l0,.09-.06-.19,0,.09-.06-.19,0,.09-.06-.19,0,.09-.06-.19,0,.09-.06-.19,0,.09-.06-.19,0,.09-.06-.19,0,.09-.06-.19,0,.09-.06-.19,0,.09L119,7l0,.09-.06-.19,0,.09-.06-.19,0,.09-.06-.19,0,.09-.06-.19,0,.09-.06-.19,0,.09-.06-.19,0,.09-.06-.19,0,.09-.06-.19,0,.09-.06-.19,0,.09L118,6l0,.09-.06-.19,0,.09-.06-.19,0,.09-.06-.19,0,.09-.06-.19,0,.09-.06-.19,0,.09-.06-.19,0,.09-.06-.19,0,.09-.06-.19,0,.09-.06-.19,0,.09L117,5l0,.09-.06-.19,0,.09-.06-.19,0,.09-.06-.19,0,.09-.06-.19,0,.09-.06-.19,0,.09-.06-.19,0,.09-.06-.19,0,.09-.06-.19,0,.09-.06-.19,0,.09L116,4l0,.09-.06-.19,0,.09-.06-.19,0,.09-.06-.19,0,.09-.06-.19,0,.09-.06-.19,0,.09-.06-.19,0,.09-.06-.19,0,.09-.06-.19,0,.09-.06-.19,0,.09L115,3l0,.09-.06-.19,0,.09-.06-.19,0,.09-.06-.19,0,.09-.06-.19,0,.09-.06-.19,0,.09-.06-.19,0,.09-.06-.19,0,.09-.06-.19,0,.09-.06-.19,0,.09L114,2l0,.09-.06-.19,0,.09-.06-.19,0,.09-.06-.19,0,.09-.06-.19,0,.09-.06-.19,0,.09-.06-.19,0,.09-.06-.19,0,.09-.06-.19,0,.09-.06-.19,0,.09L113,1l0,.09L112.89.9l0,.09L112.79.8l0,.09L112.69.7l0,.09L112.59.6l0,.09L112.49.5l0,.09L112.39.4l0,.09L112.29.3l0,.09L112.19.2l0,.09L112.09.1l0,.09L112,0,97.55,33a75.75,75.75,0,0,0-22.08,5.74L46.78,17l7.71,35.18A76.59,76.59,0,0,0,40,69.77L4,69l.11.1h0l.11.1h0l.11.1h0l.11.1h0l.11.1h0l.11.1h0l.11.1h0l.11.1h0l.11.1h0L5,70H5l.11.1h0l.11.1h0l.11.1h0l.11.1h0l.11.1h0l.11.1h0l.11.1h0l.11.1h0l.11.1h0L6,71H6l.11.1h0l.11.1h0l.11.1h0l.11.1h0l.11.1h0l.11.1h0l.11.1h0l.11.1h0l.11.1h0L7,72H7l.11.1h0l.11.1h0l.11.1h0l.11.1h0l.11.1h0l.11.1h0l.11.1h0l.11.1h0l.11.1h0L8,73H8l.11.1h0l.11.1h0l.11.1h0l.11.1h0l.11.1h0l.11.1h0l.11.1h0l.11.1h0l.11.1h0L9,74H9l.11.1h0l.11.1h0l.11.1h0l.11.1h0l.11.1h0l.11.1h0l.11.1h0l.11.1h0l.11.1h0L10,75h0l.11.1h0l.11.1h0l.11.1h0l.11.1h0l.11.1h0l.11.1h0l.11.1h0l.11.1h0l.11.1h0L11,76h0l.11.1h0l.11.1h0l.11.1h0l.11.1h0l.11.1h0l.11.1h0l.11.1h0l.11.1h0l.11.1h0L12,77h0l.11.1h0l.11.1h0l.11.1h0l.11.1h0l.11.1h0l.11.1h0l.11.1h0l.11.1h0l.11.1h0L13,78h0l.11.1h0l.11.1h0l.11.1h0l.11.1h0l.11.1h0l.11.1h0l.11.1h0l.11.1h0l.11.1h0L14,79h0l.11.1h0l.11.1h0l.11.1h0l.11.1h0l.11.1h0l.11.1h0l.11.1h0l.11.1h0l.11.1h0L15,80h0l.11.1h0l.11.1h0l.11.1h0l.11.1h0l.11.1h0l.11.1h0l.11.1h0l.11.1h0l.11.1h0L16,81h0l.11.1h0l.11.1h0l.11.1h0l.11.1h0l.11.1h0l.11.1h0l.11.1h0l.11.1h0l.11.1h0L17,82h0l.11.1h0l.11.1h0l.11.1h0l.11.1h0l.11.1h0l.11.1h0l.11.1h0l.11.1h0l.11.1h0L18,83h0l.11.1h0l.11.1h0l.11.1h0l.11.1h0l.11.1h0l.11.1h0l.11.1h0l.11.1h0l.11.1h0L19,84h0l.11.1h0l.11.1h0l.11.1h0l.11.1h0l.11.1h0l.11.1h0l.11.1h0l.11.1h0l.11.1h0L20,85h0l.11.1h0l.11.1h0l.11.1h0l.11.1h0l.11.1h0l.11.1h0l.11.1h0l.11.1h0l.11.1h0L21,86h0l.11.1h0l.11.1h0l.11.1h0l.11.1h0l.11.1h0l.11.1h0l.11.1h0l.11.1h0l.11.1h0L22,87h0l.11.1h0l.11.1h0l.11.1h0l.11.1h0l.11.1h0l.11.1h0l.11.1h0l.11.1h0l.11.1h0L23,88h0l.11.1h0l.11.1h0l.11.1h0l.11.1h0l.11.1h0l.11.1h0l.11.1h0l.11.1h0l.11.1h0L24,89h0l.11.1h0l.11.1h0l.11.1h0l.11.1h0l.11.1h0l.11.1h0l.11.1h0l.11.1h0l.11.1h0L25,90h0l.11.1h0l.11.1h0l.11.1h0l.11.1h0l.11.1h0l.11.1h0l.11.1h0l.11.1h0l.11.1h0L26,91h0l.11.1h0l.11.1h0l.11.1h0l.11.1h0l.11.1h0l.11.1h0l.11.1h0l.11.1h0l.11.1h0L27,92h0l.11.1h0l.11.1h0l.11.1h0l.11.1h0l.11.1h0l.11.1h0l.11.1h0l.11.1h0l.11.1h0L28,93h0l.11.1h0l.11.1h0l.11.1h0l.11.1h0l.11.1h0l.11.1h0l.11.1h0l.11.1h0l.11.1h0L29,94h0l.11.1h0l.11.1h0l.11.1h0l.11.1h0l.11.1h0l.11.1h0l.11.1h0l.11.1h0l.11.1h0L30,95h0l.11.1h0l.11.1h0l.11.1h0l.11.1h0l0,0a76.35,76.35,0,0,0-1.2,13.36c0,2.32.12,4.62.32,6.89L0,136.29l.21,0-.11.08.21,0-.11.08.21,0-.11.08.21,0-.11.08.21,0-.11.08.21,0-.11.08.21,0L.7,137l.21,0-.11.08.21,0-.11.08.21,0-.11.08.21,0-.11.08.21,0-.11.08.21,0-.11.08.21,0-.11.08.21,0-.11.08.21,0-.11.08.21,0L1.7,138l.21,0-.11.08.21,0-.11.08.21,0-.11.08.21,0-.11.08.21,0-.11.08.21,0-.11.08.21,0-.11.08.21,0-.11.08.21,0-.11.08.21,0L2.7,139l.21,0-.11.08.21,0-.11.08.21,0-.11.08.21,0-.11.08.21,0-.11.08.21,0-.11.08.21,0-.11.08.21,0-.11.08.21,0-.11.08.21,0L3.7,140l.21,0-.11.08.21,0-.11.08.21,0-.11.08.21,0-.11.08.21,0-.11.08.21,0-.11.08.21,0-.11.08.21,0-.11.08.21,0-.11.08.21,0L4.7,141l.21,0-.11.08.21,0-.11.08.21,0-.11.08.21,0-.11.08.21,0-.11.08.21,0-.11.08.21,0-.11.08.21,0-.11.08.21,0-.11.08.21,0L5.7,142l.21,0-.11.08.21,0-.11.08.21,0-.11.08.21,0-.11.08.21,0-.11.08.21,0-.11.08.21,0-.11.08.21,0-.11.08.21,0-.11.08.21,0L6.7,143l.21,0-.11.08.21,0-.11.08.21,0-.11.08.21,0-.11.08.21,0-.11.08.21,0-.11.08.21,0-.11.08.21,0-.11.08.21,0-.11.08.21,0L7.7,144l.21,0-.11.08.21,0-.11.08.21,0-.11.08.21,0-.11.08.21,0-.11.08.21,0-.11.08.21,0-.11.08.21,0-.11.08.21,0-.11.08.21,0L8.7,145l.21,0-.11.08.21,0-.11.08.21,0-.11.08.21,0-.11.08.21,0-.11.08.21,0-.11.08.21,0-.11.08.21,0-.11.08.21,0-.11.08.21,0L9.7,146l.21,0-.11.08.21,0-.11.08.21,0-.11.08.21,0-.11.08.21,0-.11.08.21,0-.11.08.21,0-.11.08.21,0-.11.08.21,0-.11.08.21,0-.11.08.21,0-.11.08.21,0-.11.08.21,0-.11.08.21,0-.11.08.21,0-.11.08.21,0-.11.08.21,0-.11.08.21,0-.11.08.21,0-.11.08.21,0-.11.08.21,0-.11.08.21,0-.11.08.21,0-.11.08.21,0-.11.08.21,0-.11.08.21,0-.11.08.21,0-.11.08.21,0-.11.08.21,0-.11.08.21,0-.11.08.21,0-.11.08.21,0-.11.08.21,0-.11.08.21,0-.11.08.21,0-.11.08.21,0-.11.08.21,0-.11.08.21,0-.11.08.21,0-.11.08.21,0-.11.08.21,0-.11.08.21,0-.11.08.21,0-.11.08.21,0-.11.08.21,0-.11.08.21,0-.11.08.21,0-.11.08.21,0-.11.08.21,0-.11.08.21,0-.11.08.21,0-.11.08.21,0-.11.08.21,0-.11.08.21,0-.11.08.21,0-.11.08.21,0-.11.08.21,0-.11.08.21,0-.11.08.21,0-.11.08.21,0-.11.08.21,0-.11.08.21,0-.11.08.21,0-.11.08.21,0-.11.08.21,0-.11.08.21,0-.11.08.21,0-.11.08.21,0-.11.08.21,0-.11.08.21,0-.11.08.21,0-.11.08.21,0-.11.08.21,0-.11.08.21,0-.11.08.21,0-.11.08.21,0-.11.08.21,0-.11.08.21,0-.11.08.21,0-.11.08.21,0-.11.08.21,0-.11.08.21,0-.11.08.21,0-.11.08.21,0-.11.08.21,0-.11.08.21,0-.11.08.21,0-.11.08.21,0-.11.08.21,0-.11.08.21,0-.11.08.21,0-.11.08.21,0-.11.08.21,0-.11.08.21,0-.11.08.21,0-.11.08.21,0-.11.08.21,0-.11.08.21,0-.11.08.21,0-.11.08.21,0-.11.08.21,0-.11.08.21,0-.11.08.21,0-.11.08.21,0-.11.08.21,0-.11.08.21,0-.11.08.21,0-.11.08.21,0-.11.08.21,0-.11.08.21,0-.11.08.21,0-.11.08.21,0-.11.08.21,0-.11.08.21,0-.11.08.21,0-.11.08.21,0-.11.08.21,0-.11.08.21,0-.11.08.21,0-.11.08.21,0-.11.08.21,0-.11.08.21,0-.11.08.21,0-.11.08.21,0-.11.08.21,0-.11.08.21,0-.11.08.21,0-.11.08.21,0-.11.08.21,0-.11.08.21,0-.11.08.21,0-.11.08.21,0-.11.08.21,0-.11.08.21,0-.11.08.21,0-.11.08.21,0-.11.08.21,0-.11.08.21,0-.11.08.21,0-.11.08.21,0-.11.08.21,0-.11.08.21,0-.11.08.21,0-.11.08.21,0-.11.08.21,0-.11.08.21,0-.11.08.21,0-.11.08.21,0-.11.08.21,0-.11.08.21,0-.11.08.21,0-.11.08.21,0-.11.08.21,0-.11.08.21,0-.11.08.21,0-.11.08.21,0-.11.08.21,0-.11.08.21,0-.11.08.21,0-.11.08.21,0-.11.08.21,0-.11.08.21,0-.11.08.21,0-.11.08.21,0-.11.08.21,0-.11.08.21,0-.11.08.21,0-.11.08.21,0-.11.08.21,0-.11.08.21,0-.11.08.21,0-.11.08.21,0-.11.08.21,0-.11.08.21,0-.11.08.21,0-.11.08.21,0-.11.08.21,0-.11.08.21,0-.11.08.21,0-.11.08.21,0-.11.08.21,0-.11.08.21,0-.11.08.21,0-.11.08.21,0-.11.08.21,0-.11.08.21,0-.11.08.21,0-.11.08.21,0-.11.08.21,0-.11.08.21,0-.11.08.21,0-.11.08.21,0-.11.08.21,0-.11.08.21,0-.11.08.21,0-.11.08.21,0-.11.08.21,0-.11.08.21,0-.11.08.21,0-.11.08.21,0-.11.08.21,0-.11.08.21,0-.11.08.21,0-.11.08,15.08,1.49-8.79,25.28.17-.1-.07.2.17-.1-.07.2.17-.1-.07.2.17-.1-.07.2.17-.1-.07.2.17-.1-.07.2.17-.1-.07.2.17-.1-.07.2.17-.1-.07.2.17-.1-.07.2.17-.1-.07.2.17-.1-.07.2.17-.1-.07.2.17-.1-.07.2.17-.1-.07.2.17-.1-.07.2.17-.1-.07.2.17-.1-.07.2.17-.1-.07.2.17-.1-.07.2.17-.1-.07.2.17-.1-.07.2.17-.1-.07.2.17-.1-.07.2.17-.1-.07.2.17-.1-.07.2.17-.1-.07.2.17-.1-.07.2.17-.1-.07.2.17-.1-.07.2.17-.1-.07.2.17-.1-.07.2.17-.1-.07.2.17-.1-.07.2.17-.1-.07.2.17-.1-.07.2.17-.1-.07.2.17-.1-.07.2.17-.1-.07.2.17-.1-.07.2.17-.1-.07.2.17-.1-.07.2.17-.1-.07.2.17-.1-.07.2.17-.1-.07.2.17-.1-.07.2.17-.1-.07.2.17-.1-.07.2.17-.1-.07.2.17-.1-.07.2.17-.1-.07.2.17-.1-.07.2.17-.1-.07.2.17-.1-.07.2.17-.1-.07.2.17-.1-.07.2.17-.1-.07.2.17-.1-.07.2.17-.1-.07.2.17-.1-.07.2.17-.1-.07.2.17-.1-.07.2.17-.1-.07.2.17-.1-.07.2.17-.1-.07.2.17-.1-.07.2.17-.1-.07.2.17-.1-.07.2.17-.1-.07.2.17-.1-.07.2.17-.1-.07.2.17-.1-.07.2.17-.1-.07.2.17-.1-.07.2.17-.1-.07.2.17-.1-.07.2.17-.1-.07.2.17-.1-.07.2.17-.1-.07.2.17-.1-.07.2.17-.1-.07.2.17-.1-.07.2.17-.1-.07.2.17-.1-.07.2.17-.1-.07.2.17-.1-.07.2.17-.1-.07.2.17-.1-.07.2.17-.1-.07.2.17-.1-.07.2.17-.1-.07.2.17-.1-.07.2.17-.1-.07.2.17-.1-.07.2.17-.1-.07.2.17-.1-.07.2.17-.1-.07.2.17-.1-.07.2.17-.1-.07.2.17-.1-.07.2.17-.1-.07.2.17-.1-.07.2.17-.1-.07.2.17-.1-.07.2.17-.1-.07.2.17-.1-.07.2.17-.1-.07.2.17-.1-.07.2.17-.1-.07.2.17-.1-.07.2.17-.1-.07.2.17-.1-.07.2.17-.1-.07.2.17-.1-.07.2.17-.1-.07.2.17-.1-.07.2.17-.1-.07.2.17-.1-.07.2.17-.1-.07.2.17-.1-.07.2.17-.1-.07.2.17-.1-.07.2.17-.1-.07.2.17-.1-.07.2.17-.1-.07.2.17-.1-.07.2.17-.1-.07.2.17-.1-.07.2.17-.1-.07.2.17-.1-.07.2.17-.1-.07.2.17-.1-.07.2.17-.1-.07.2.17-.1-.07.2.17-.1-.07.2.17-.1-.07.2.17-.1-.07.2.17-.1-.07.2.17-.1-.07.2.17-.1-.07.2.17-.1-.07.2.17-.1-.07.2.17-.1-.07.2.17-.1-.07.2.17-.1-.07.2.17-.1-.07.2.17-.1-.07.2.17-.1-.07.2.17-.1-.07.2.17-.1-.07.2.17-.1-.07.2.17-.1-.07.2.17-.1-.07.2.17-.1-.07.2.17-.1-.07.2.17-.1-.07.2.17-.1-.07.2.17-.1-.07.2.17-.1-.07.2.17-.1-.07.2.17-.1-.07.2.17-.1-.07.2.17-.1-.07.2.17-.1-.07.2.17-.1-.07.2.17-.1-.07.2.17-.1-.07.2.17-.1-.07.2.17-.1-.07.2.17-.1-.07.2.17-.1-.07.2.17-.1-.07.2.17-.1-.07.2.17-.1-.07.2.17-.1-.07.2.17-.1-.07.2.17-.1-.07.2.17-.1-.07.2.17-.1-.07.2.17-.1-.07.2.17-.1-.07.2.17-.1-.07.2.17-.1-.07.2.17-.1-.07.2.17-.1-.07.2.17-.1-.07.2.17-.1-.07.2.17-.1-.07.2.17-.1-.07.2.17-.1-.07.2.17-.1-.07.2.17-.1-.07.2.17-.1-.07.2.17-.1-.07.2.17-.1-.07.2.17-.1-.07.2.17-.1-.07.2.17-.1-.07.2.17-.1-.07.2.17-.1-.07.2.17-.1-.07.2.17-.1-.07.2.17-.1-.07.2.17-.1-.07.2.17-.1-.07.2.17-.1-.07.2.17-.1-.07.2.17-.1-.07.2.17-.1-.07.2.17-.1-.07.2.17-.1-.07.2.17-.1-.07.2.17-.1-.07.2.17-.1-.07.2.17-.1-.07.2.17-.1-.07.2.17-.1-.07.2.17-.1-.07.2.17-.1-.07.2.17-.1-.07.2.17-.1-.07.2.17-.1-.07.2.17-.1-.07.2.17-.1-.07.2.17-.1-.07.2.17-.1-.07.2.17-.1-.07.2.17-.1-.07.2.17-.1-.07.2.17-.1-.07.2.17-.1-.07.2.17-.1-.07.2.17-.1-.07.2.17-.1-.07.2.17-.1-.07.2.17-.1-.07.2.17-.1-.07.2.17-.1-.07.2.17-.1-.07.2.17-.1-.07.2.17-.1-.07.2.17-.1-.07.2.17-.1-.07.2.17-.1-.07.2.17-.1-.07.2.17-.1-.07.2.17-.1-.07.2.17-.1-.07.2.17-.1-.07.2.17-.1-.07.2.17-.1-.07.2.17-.1-.07.2.17-.1-.07.2.17-.1-.07.2.17-.1-.07.2.17-.1-.07.2.17-.1-.07.2.17-.1-.07.2.17-.1-.07.2.17-.1-.07.2.17-.1-.07.2.17-.1-.07.2.17-.1-.07.2.17-.1-.07.2.17-.1-.07.2.17-.1-.07.2.17-.1-.07.2.17-.1-.07.2.17-.1-.07.2.17-.1-.07.2.17-.1-.07.2.17-.1-.07.2.17-.1-.07.2.17-.1-.07.2.17-.1-.07.2.17-.1-.07.2.17-.1-.07.2.17-.1-.07.2.17-.1-.07.2.17-.1-.07.2.17-.1-.07.2.17-.1-.07.2.17-.1-.07.2.17-.1-.07.2.17-.1-.07.2.17-.1-.07.2.17-.1-.07.2.17-.1-.07.2.17-.1-.07.2.17-.1-.07.2.17-.1-.07.2.17-.1-.07.2.17-.1-.07.2.17-.1-.07.2.17-.1-.07.2.17-.1-.07.2.17-.1-.07.2.17-.1-.07.2.17-.1-.07.2.17-.1-.07.2L95.48,206,99,217.65l0-.09.06.19,0-.09.06.19,0-.09.06.19,0-.09.06.19,0-.09.06.19,0-.09.06.19,0-.09.06.19,0-.09.06.19,0-.09.06.19,0-.09.06.19,0-.09.06.19,0-.09.06.19,0-.09.06.19,0-.09.06.19,0-.09.06.19,0-.09.06.19,0-.09.06.19,0-.09.06.19,0-.09.06.19,0-.09.06.19,0-.09.06.19,0-.09.06.19,0-.09.06.19,0-.09.06.19,0-.09.06.19,0-.09.06.19,0-.09.06.19,0-.09.06.19,0-.09.06.19,0-.09.06.19,0-.09.06.19,0-.09.06.19,0-.09.06.19,0-.09.06.19,0-.09.06.19,0-.09.06.19,0-.09.06.19,0-.09.06.19,0-.09.06.19,0-.09.06.19,0-.09.06.19,0-.09.06.19,0-.09.06.19,0-.09.06.19,0-.09.06.19,0-.09.06.19,0-.09.06.19,0-.09.06.19,0-.09.06.19,0-.09.06.19,0-.09.06.19,0-.09.06.19,0-.09.06.19,0-.09.06.19,0-.09.06.19,0-.09.06.19,0-.09.06.19,0-.09.06.19,0-.09.06.19,0-.09.06.19,0-.09.06.19,0-.09.06.19,0-.09.06.19,0-.09.06.19,0-.09.06.19,0-.09.06.19,0-.09.06.19,0-.09.06.19,0-.09.06.19,0-.09.06.19,0-.09.06.19,0-.09.06.19,0-.09.06.19,0-.09.06.19,0-.09.06.19,0-.09.06.19,0-.09.06.19,0-.09.06.19,0-.09.06.19,0-.09.06.19,0-.09.06.19,0-.09.06.19,0-.09.06.19,0-.09.06.19,0-.09.06.19,0-.09.06.19,0-.09.06.19,0-.09.06.19,0-.09.06.19,0-.09.06.19,0-.09.06.19,0-.09.06.19,0-.09.06.19,0-.09.06.19,0-.09.06.19,0-.09.06.19,0-.09.06.19,0-.09.06.19,0-.09.06.19,0-.09.06.19,0-.09.06.19,0-.09.06.19,0-.09.06.19,0-.09.06.19,0-.09.06.19,0-.09.06.19,0-.09.06.19,0-.09.06.19,0-.09.06.19,0-.09.06.19,0-.09.06.19,0-.09.06.19,0-.09.06.19,0-.09.06.19,0-.09.06.19,0-.09.06.19,0-.09.06.19,0-.09.06.19,0-.09.06.19,0-.09.06.19,0-.09.06.19,0-.09.06.19,0-.09.06.19,0-.09.06.19,0-.09.06.19,0-.09.06.19,0-.09.06.19,0-.09.06.19,0-.09.06.19,0-.09.06.19,0-.09.06.19,0-.09.06.19,0-.09.06.19,0-.09.06.19,0-.09.06.19,0-.09.06.19,0-.09.06.19,0-.09.06.19,0-.09.06.19,0-.09.06.19,0-.09.06.19,0-.09.06.19,0-.09.06.19,0-.09.06.19,0-.09.06.19,0-.09.06.19,0-.09.06.19,0-.09.06.19,0-.09.06.19,0-.09.06.19,0-.09.06.19,0-.09.06.19,0-.09.06.19,0-.09.06.19,0-.09.06.19,0-.09.06.19,0-.09.06.19,0-.09.06.19,0-.09.06.19,0-.09.06.19,0-.09.06.19,0-.09.06.19,0-.09.06.19,0-.09.06.19,0-.09.06.19,0-.09.06.19,0-.09.06.19,0-.09.06.19,0-.09.06.19,0-.09.06.19,0-.09.06.19,0-.09.06.19,0-.09.06.19,0-.09.06.19,0-.09.06.19,0-.09.06.19,0-.09.06.19,0-.09.06.19,0-.09.06.19,0-.09.06.19,0-.09.06.19,0-.09.06.19,0-.09.06.19,0-.09.06.19,0-.09.06.19,0-.09.06.19,0-.09.06.19,0-.09.06.19,0-.09.06.19,0-.09.06.19,0-.09.06.19,0-.09.06.19,0-.09.06.19,0-.09.06.19,0-.09.06.19,0-.09.06.19,0-.09.06.19,0-.09.06.19,0-.09.06.19,0-.09.06.19,0-.09.06.19,0-.09.06.19,0-.09.06.19,0-.09.06.19,0-.09.06.19,0-.09.06.19,0-.09.06.19,0-.09.06.19,0-.09.06.19,0-.09.06.19,0-.09.06.19,0-.09.06.19,0-.09.06.19,0-.09.06.19,0-.09.06.19,0-.09.06.19,0-.09.06.19,0-.09.06.19,0-.09.06.19,0-.09.06.19,0-.09.06.19,0-.09.06.19,0-.09.06.19,0-.09.06.19,0-.09.06.19,0-.09.06.19,0-.09.06.19,0-.09.06.19,0-.09.06.19,0-.09.06.19,0-.09.06.19,0-.09.06.19,0-.09.06.19,0-.09.06.19,0-.09.06.19,0-.09.06.19,0-.09.06.19,0-.09.06.19,0-.09.06.19,0-.09.06.19,0-.09.06.19,0-.09.06.19,0-.09.06.19,0-.09.06.19,0-.09.06.19,0-.09.06.19,0-.09.06.19,0-.09.06.19,0-.09.06.19,0-.09.06.19,0-.09.06.19,0-.09.06.19,0-.09.06.19,0-.09.06.19,0-.09.06.19,0-.09.06.19,0-.09.06.19,0-.09.06.19,0-.09.06.19,0-.09.06.19,0-.09.06.19,0-.09.06.19,0-.09.06.19,0-.09.06.19,0-.09.06.19,0-.09.06.19,0-.09.06.19,0-.09.06.19,0-.09.06.19,0-.09.06.19,0-.09.06.19,0-.09.06.19,0-.09.06.19,0-.09.06.19,0-.09.06.19,0-.09.06.19,0-.09.06.19,0-.09.06.19,0-.09.06.19,0-.09.06.19,0-.09.06.19,0-.09.06.19,0-.09.06.19,0-.09.06.19,0-.09.06.19,0-.09.06.19,0-.09.06.19,0-.09.06.19,0-.09.06.19,0-.09.06.19,0-.09.06.19,0-.09.06.19,0-.09.06.19,0-.09.06.19,0-.09.06.19,0-.09.06.19,0-.09.06.19,0-.09.06.19,0-.09.06.19,0-.09.06.19,14.44-33a75.75,75.75,0,0,0,22.08-5.74l28.68,21.76-7.71-35.18A76.59,76.59,0,0,0,201,177.88l36,.74-.11-.1Z"/><polygon class="cls-3" points="164.22 200.68 120.85 167.78 99.02 217.65 83.27 165.54 36.29 193.05 54.18 141.63 0 136.29 44.7 105.2 4.01 69.03 58.44 70.15 46.78 16.97 90.16 49.87 111.99 0 127.74 52.11 174.71 24.59 156.83 76.01 211 81.36 166.31 112.45 207 148.62 152.57 147.5 164.22 200.68"/><circle class="cls-4" cx="105.5" cy="108.82" r="76.25"/><path class="cls-5" d="M29.25,108.82a76.25,76.25,0,0,0,76.25,76.25V32.57A76.25,76.25,0,0,0,29.25,108.82Z"/></g></g></g></svg>